# OBJ generated by ONSHAPE BY PTC INC, 1.213 Units = meters
mtllib support.mtl
g Part 1
v -0.224528 0 0.0145642 
v -0.225 0 -1.37773e-17 
v -0.225 0.05 -1.37773e-17 
v -0.223115 0 0.0290673 
v -0.224528 0.05 0.0145642 
v -0.220765 0 0.0434485 
v -0.223115 0.05 0.0290673 
v -0.21749 0 0.0576475 
v -0.220765 0.05 0.0434485 
v -0.213302 0 0.0716047 
v -0.21749 0.05 0.0576475 
v -0.20822 0 0.0852615 
v -0.213302 0.05 0.0716047 
v -0.202264 0 0.0985607 
v -0.20822 0.05 0.0852615 
v -0.19546 0 0.111447 
v -0.202264 0.05 0.0985607 
v -0.187836 0 0.123865 
v -0.19546 0.05 0.111447 
v -0.179425 0 0.135764 
v -0.187836 0.05 0.123865 
v -0.17026 0 0.147093 
v -0.179425 0.05 0.135764 
v -0.160382 0 0.157806 
v -0.17026 0.05 0.147093 
v -0.149831 0 0.167856 
v -0.160382 0.05 0.157806 
v -0.138651 0 0.177203 
v -0.149831 0.05 0.167856 
v -0.12689 0 0.185806 
v -0.138651 0.05 0.177203 
v -0.114597 0 0.19363 
v -0.12689 0.05 0.185806 
v -0.101823 0 0.200642 
v -0.114597 0.05 0.19363 
v -0.088622 0 0.206812 
v -0.101823 0.05 0.200642 
v -0.0750493 0 0.212115 
v -0.088622 0.05 0.206812 
v -0.0611618 0 0.216528 
v -0.0750493 0.05 0.212115 
v -0.0470177 0 0.220033 
v -0.0611618 0.05 0.216528 
v -0.0326764 0 0.222615 
v -0.0470177 0.05 0.220033 
v -0.0181981 0 0.224263 
v -0.0326764 0.05 0.222615 
v -0.00364344 0 0.22497 
v -0.0181981 0.05 0.224263 
v 0.0109265 0 0.224735 
v -0.00364344 0.05 0.22497 
v 0.0254506 0 0.223556 
v 0.0109265 0.05 0.224735 
v 0.039868 0 0.22144 
v 0.0254506 0.05 0.223556 
v 0.0541181 0 0.218395 
v 0.039868 0.05 0.22144 
v 0.0681413 0 0.214434 
v 0.0541181 0.05 0.218395 
v 0.0818786 0 0.209573 
v 0.0681413 0.05 0.214434 
v 0.0952725 0 0.203834 
v 0.0818786 0.05 0.209573 
v 0.108267 0 0.197239 
v 0.0952725 0.05 0.203834 
v 0.120807 0 0.189817 
v 0.108267 0.05 0.197239 
v 0.132841 0 0.1816 
v 0.120807 0.05 0.189817 
v 0.144317 0 0.17262 
v 0.132841 0.05 0.1816 
v 0.155188 0 0.162916 
v 0.144317 0.05 0.17262 
v 0.165408 0 0.152529 
v 0.155188 0.05 0.162916 
v 0.174934 0 0.141503 
v 0.165408 0.05 0.152529 
v 0.183727 0 0.129882 
v 0.174934 0.05 0.141503 
v 0.191749 0 0.117717 
v 0.183727 0.05 0.129882 
v 0.198966 0 0.105059 
v 0.191749 0.05 0.117717 
v 0.20535 0 0.0919593 
v 0.198966 0.05 0.105059 
v 0.210872 0 0.0784742 
v 0.20535 0.05 0.0919593 
v 0.215509 0 0.06466 
v 0.210872 0.05 0.0784742 
v 0.219242 0 0.0505745 
v 0.215509 0.05 0.06466 
v 0.222056 0 0.036277 
v 0.219242 0.05 0.0505745 
v 0.223939 0 0.0218272 
v 0.222056 0.05 0.036277 
v 0.224882 0 0.00728593 
v 0.223939 0.05 0.0218272 
v 0.224882 0.05 -0.00728593 
v 0.224882 0 -0.00728593 
v 0.225 0 -9.64409e-17 
v 0.224882 0.05 0.00728593 
v 0.225 0.05 -4.13318e-17 
v 0.223939 0 -0.0218272 
v 0.222056 0 -0.036277 
v 0.223939 0.05 -0.0218272 
v 0.219242 0 -0.0505745 
v 0.222056 0.05 -0.036277 
v 0.215509 0 -0.06466 
v 0.219242 0.05 -0.0505745 
v 0.210872 0 -0.0784742 
v 0.215509 0.05 -0.06466 
v 0.20535 0 -0.0919593 
v 0.210872 0.05 -0.0784742 
v 0.198966 0 -0.105059 
v 0.20535 0.05 -0.0919593 
v 0.191749 0 -0.117717 
v 0.198966 0.05 -0.105059 
v 0.183727 0 -0.129882 
v 0.191749 0.05 -0.117717 
v 0.174934 0 -0.141503 
v 0.183727 0.05 -0.129882 
v 0.165408 0 -0.152529 
v 0.174934 0.05 -0.141503 
v 0.155188 0 -0.162916 
v 0.165408 0.05 -0.152529 
v 0.144317 0 -0.17262 
v 0.155188 0.05 -0.162916 
v 0.132841 0 -0.1816 
v 0.144317 0.05 -0.17262 
v 0.120807 0 -0.189817 
v 0.132841 0.05 -0.1816 
v 0.108267 0 -0.197239 
v 0.120807 0.05 -0.189817 
v 0.0952725 0 -0.203834 
v 0.108267 0.05 -0.197239 
v 0.0818786 0 -0.209573 
v 0.0952725 0.05 -0.203834 
v 0.0681413 0 -0.214434 
v 0.0818786 0.05 -0.209573 
v 0.0541181 0 -0.218395 
v 0.0681413 0.05 -0.214434 
v 0.039868 0 -0.22144 
v 0.0541181 0.05 -0.218395 
v 0.0254506 0 -0.223556 
v 0.039868 0.05 -0.22144 
v 0.0109265 0 -0.224735 
v 0.0254506 0.05 -0.223556 
v -0.00364344 0 -0.22497 
v 0.0109265 0.05 -0.224735 
v -0.0181981 0 -0.224263 
v -0.00364344 0.05 -0.22497 
v -0.0326764 0 -0.222615 
v -0.0181981 0.05 -0.224263 
v -0.0470177 0 -0.220033 
v -0.0326764 0.05 -0.222615 
v -0.0611618 0 -0.216528 
v -0.0470177 0.05 -0.220033 
v -0.0750493 0 -0.212115 
v -0.0611618 0.05 -0.216528 
v -0.088622 0 -0.206812 
v -0.0750493 0.05 -0.212115 
v -0.101823 0 -0.200642 
v -0.088622 0.05 -0.206812 
v -0.114597 0 -0.19363 
v -0.101823 0.05 -0.200642 
v -0.12689 0 -0.185806 
v -0.114597 0.05 -0.19363 
v -0.138651 0 -0.177203 
v -0.12689 0.05 -0.185806 
v -0.149831 0 -0.167856 
v -0.138651 0.05 -0.177203 
v -0.160382 0 -0.157806 
v -0.149831 0.05 -0.167856 
v -0.17026 0 -0.147093 
v -0.160382 0.05 -0.157806 
v -0.179425 0 -0.135764 
v -0.17026 0.05 -0.147093 
v -0.187836 0 -0.123865 
v -0.179425 0.05 -0.135764 
v -0.19546 0 -0.111447 
v -0.187836 0.05 -0.123865 
v -0.202264 0 -0.0985607 
v -0.19546 0.05 -0.111447 
v -0.20822 0 -0.0852615 
v -0.202264 0.05 -0.0985607 
v -0.213302 0 -0.0716047 
v -0.20822 0.05 -0.0852615 
v -0.21749 0 -0.0576475 
v -0.213302 0.05 -0.0716047 
v -0.220765 0 -0.0434485 
v -0.21749 0.05 -0.0576475 
v -0.223115 0 -0.0290673 
v -0.220765 0.05 -0.0434485 
v -0.224528 0 -0.0145642 
v -0.223115 0.05 -0.0290673 
v -0.224528 0.05 -0.0145642 
v -0.162293 0.05 -0.222004 
v -0.175043 0.05 -0.212097 
v -0.0442153 0.05 -0.271422 
v -0.0600682 0.05 -0.268359 
v -0.075714 0.05 -0.264372 
v -0.0910989 0.05 -0.259473 
v -0.10617 0.05 -0.253679 
v -0.120874 0.05 -0.247011 
v -0.135163 0.05 -0.239491 
v -0.148985 0.05 -0.231146 
v -0.198689 0.05 -0.190126 
v -0.209504 0.05 -0.178137 
v -0.219598 0.05 -0.165535 
v 0.155706 0.05 0.226673 
v 0.274881 0.05 0.00807303 
v 0.275 0.05 -1.17872e-16 
v 0.274881 0.05 -0.00807303 
v -0.228934 0.05 -0.152362 
v 0.142135 0.05 0.23542 
v 0.168741 0.05 0.217144 
v 0.181194 0.05 0.206867 
v 0.193022 0.05 0.195876 
v 0.204185 0.05 0.184211 
v 0.214644 0.05 0.17191 
v 0.224363 0.05 0.159017 
v 0.233308 0.05 0.145576 
v 0.273934 0.05 0.0241913 
v 0.155706 0.05 -0.226673 
v 0.142135 0.05 -0.23542 
v -0.187188 0.05 -0.201458 
v -0.24521 0.05 -0.124488 
v -0.252093 0.05 -0.109882 
v -0.274526 0.05 0.0161391 
v -0.273106 0.05 0.0322226 
v -0.270744 0.05 0.0481949 
v -0.267449 0.05 0.0640012 
v 0.273934 0.05 -0.0241913 
v 0.168741 0.05 -0.217144 
v -0.258107 0.05 -0.0948981 
v -0.263232 0.05 -0.0795868 
v -0.267449 0.05 -0.0640012 
v -0.263232 0.05 0.0795868 
v -0.162293 0.05 0.222004 
v -0.135163 0.05 0.239491 
v -0.120874 0.05 0.247011 
v -0.10617 0.05 0.253679 
v 0.128074 0.05 0.243356 
v 0.260782 0.05 0.08728 
v 0.265455 0.05 0.0718249 
v 0.269212 0.05 0.0561222 
v 0.272042 0.05 0.0402261 
v 0.260782 0.05 -0.08728 
v 0.25521 0.05 -0.102434 
v 0.233308 0.05 -0.145576 
v 0.224363 0.05 -0.159017 
v 0.214644 0.05 -0.17191 
v 0.204185 0.05 -0.184211 
v 0.193022 0.05 -0.195876 
v 0.181194 0.05 -0.206867 
v 0.128074 0.05 -0.243356 
v 0.113571 0.05 -0.250453 
v 0.0986768 0.05 -0.256686 
v -0.237481 0.05 -0.138664 
v -0.273106 0.05 -0.0322226 
v -0.274526 0.05 -0.0161391 
v -0.275 0.05 -1.68389e-17 
v -0.258107 0.05 0.0948981 
v -0.252093 0.05 0.109882 
v -0.24521 0.05 0.124488 
v -0.237481 0.05 0.138664 
v -0.228934 0.05 0.152362 
v -0.175043 0.05 0.212097 
v -0.148985 0.05 0.231146 
v 0.24145 0.05 0.131632 
v 0.248759 0.05 0.117235 
v 0.25521 0.05 0.102434 
v 0.272042 0.05 -0.0402261 
v 0.265455 0.05 -0.0718249 
v 0.248759 0.05 -0.117235 
v 0.0834424 0.05 -0.262035 
v -0.270744 0.05 -0.0481949 
v -0.187188 0.05 0.201458 
v -0.0910989 0.05 0.259473 
v -0.075714 0.05 0.264372 
v -0.0600682 0.05 0.268359 
v 0.00403695 0.05 0.27497 
v 0.0201673 0.05 0.27426 
v 0.269212 0.05 -0.0561222 
v 0.0679204 0.05 -0.26648 
v 0.00403695 0.05 -0.27497 
v -0.219598 0.05 0.165535 
v -0.209504 0.05 0.178137 
v -0.198689 0.05 0.190126 
v -0.0442153 0.05 0.271422 
v -0.0282099 0.05 0.273549 
v -0.0121074 0.05 0.274733 
v 0.0362282 0.05 0.272603 
v 0.0521642 0.05 0.270007 
v 0.0679204 0.05 0.26648 
v 0.0834424 0.05 0.262035 
v 0.0986768 0.05 0.256686 
v 0.113571 0.05 0.250453 
v 0.0521642 0.05 -0.270007 
v 0.0362282 0.05 -0.272603 
v 0.0201673 0.05 -0.27426 
v -0.0121074 0.05 -0.274733 
v -0.0282099 0.05 -0.273549 
v 0.24145 0.05 -0.131632 
v -0.275 0 -1.68389e-17 
v -0.274526 0 -0.0161391 
v -0.273106 0 -0.0322226 
v -0.270744 0 -0.0481949 
v -0.267449 0 -0.0640012 
v -0.263232 0 -0.0795868 
v -0.258107 0 -0.0948981 
v -0.252093 0 -0.109882 
v -0.24521 0 -0.124488 
v -0.237481 0 -0.138664 
v -0.228934 0 -0.152362 
v -0.219598 0 -0.165535 
v -0.209504 0 -0.178137 
v -0.198689 0 -0.190126 
v -0.187188 0 -0.201458 
v -0.175043 0 -0.212097 
v -0.162293 0 -0.222004 
v -0.148985 0 -0.231146 
v -0.135163 0 -0.239491 
v -0.120874 0 -0.247011 
v -0.10617 0 -0.253679 
v -0.0910989 0 -0.259473 
v -0.075714 0 -0.264372 
v -0.0600682 0 -0.268359 
v -0.0442153 0 -0.271422 
v -0.0282099 0 -0.273549 
v -0.0121074 0 -0.274733 
v 0.00403695 0 -0.27497 
v 0.0201673 0 -0.27426 
v 0.0362282 0 -0.272603 
v 0.0521642 0 -0.270007 
v 0.0679204 0 -0.26648 
v 0.0834424 0 -0.262035 
v 0.0986768 0 -0.256686 
v 0.113571 0 -0.250453 
v 0.128074 0 -0.243356 
v 0.142135 0 -0.23542 
v 0.155706 0 -0.226673 
v 0.168741 0 -0.217144 
v 0.181194 0 -0.206867 
v 0.193022 0 -0.195876 
v 0.204185 0 -0.184211 
v 0.214644 0 -0.17191 
v 0.224363 0 -0.159017 
v 0.233308 0 -0.145576 
v 0.24145 0 -0.131632 
v 0.248759 0 -0.117235 
v 0.25521 0 -0.102434 
v 0.260782 0 -0.08728 
v 0.265455 0 -0.0718249 
v 0.269212 0 -0.0561222 
v 0.272042 0 -0.0402261 
v 0.273934 0 -0.0241913 
v 0.274881 0 0.00807303 
v 0.275 0 -5.05167e-17 
v 0.274881 0 -0.00807303 
v 0.273934 0 0.0241913 
v 0.272042 0 0.0402261 
v 0.269212 0 0.0561222 
v 0.265455 0 0.0718249 
v 0.260782 0 0.08728 
v 0.25521 0 0.102434 
v 0.248759 0 0.117235 
v 0.24145 0 0.131632 
v 0.233308 0 0.145576 
v 0.224363 0 0.159017 
v 0.214644 0 0.17191 
v 0.204185 0 0.184211 
v 0.193022 0 0.195876 
v 0.181194 0 0.206867 
v 0.168741 0 0.217144 
v 0.155706 0 0.226673 
v 0.142135 0 0.23542 
v 0.128074 0 0.243356 
v 0.113571 0 0.250453 
v 0.0986768 0 0.256686 
v 0.0834424 0 0.262035 
v 0.0679204 0 0.26648 
v 0.0521642 0 0.270007 
v 0.0362282 0 0.272603 
v 0.0201673 0 0.27426 
v 0.00403695 0 0.27497 
v -0.0121074 0 0.274733 
v -0.0282099 0 0.273549 
v -0.0442153 0 0.271422 
v -0.0600682 0 0.268359 
v -0.075714 0 0.264372 
v -0.0910989 0 0.259473 
v -0.10617 0 0.253679 
v -0.120874 0 0.247011 
v -0.135163 0 0.239491 
v -0.148985 0 0.231146 
v -0.162293 0 0.222004 
v -0.175043 0 0.212097 
v -0.187188 0 0.201458 
v -0.198689 0 0.190126 
v -0.209504 0 0.178137 
v -0.219598 0 0.165535 
v -0.228934 0 0.152362 
v -0.237481 0 0.138664 
v -0.24521 0 0.124488 
v -0.252093 0 0.109882 
v -0.258107 0 0.0948981 
v -0.263232 0 0.0795868 
v -0.267449 0 0.0640012 
v -0.270744 0 0.0481949 
v -0.273106 0 0.0322226 
v -0.274526 0 0.0161391 
vn 0.997903 0 -0.0647298 
vn 1 0 -2.44929e-16 
vn 0.99162 0 -0.129188 
vn 0.997903 0 -0.0647298 
vn 0.981178 0 -0.193105 
vn 0.99162 0 -0.129188 
vn 0.966621 0 -0.256211 
vn 0.981178 0 -0.193105 
vn 0.948009 0 -0.318243 
vn 0.966621 0 -0.256211 
vn 0.925421 0 -0.37894 
vn 0.948009 0 -0.318243 
vn 0.898952 0 -0.438048 
vn 0.925421 0 -0.37894 
vn 0.868712 0 -0.495318 
vn 0.898952 0 -0.438048 
vn 0.834828 0 -0.550511 
vn 0.868712 0 -0.495318 
vn 0.797443 0 -0.603395 
vn 0.834828 0 -0.550511 
vn 0.756713 0 -0.653747 
vn 0.797443 0 -0.603395 
vn 0.712809 0 -0.701358 
vn 0.756713 0 -0.653747 
vn 0.665915 0 -0.746027 
vn 0.712809 0 -0.701358 
vn 0.616228 0 -0.787567 
vn 0.665915 0 -0.746027 
vn 0.563957 0 -0.825804 
vn 0.616228 0 -0.787567 
vn 0.50932 0 -0.860577 
vn 0.563957 0 -0.825804 
vn 0.452547 0 -0.891741 
vn 0.50932 0 -0.860577 
vn 0.393876 0 -0.919164 
vn 0.452547 0 -0.891741 
vn 0.333552 0 -0.942732 
vn 0.393876 0 -0.919164 
vn 0.27183 0 -0.962345 
vn 0.333552 0 -0.942732 
vn 0.208968 0 -0.977923 
vn 0.27183 0 -0.962345 
vn 0.145229 0 -0.989398 
vn 0.208968 0 -0.977923 
vn 0.0808804 0 -0.996724 
vn 0.145229 0 -0.989398 
vn 0.0161931 0 -0.999869 
vn 0.0808804 0 -0.996724 
vn -0.0485622 0 -0.99882 
vn 0.0161931 0 -0.999869 
vn -0.113114 0 -0.993582 
vn -0.0485622 0 -0.99882 
vn -0.177191 0 -0.984176 
vn -0.113114 0 -0.993582 
vn -0.240525 0 -0.970643 
vn -0.177191 0 -0.984176 
vn -0.30285 0 -0.953038 
vn -0.240525 0 -0.970643 
vn -0.363905 0 -0.931436 
vn -0.30285 0 -0.953038 
vn -0.423433 0 -0.905927 
vn -0.363905 0 -0.931436 
vn -0.481186 0 -0.876619 
vn -0.423433 0 -0.905927 
vn -0.53692 0 -0.843633 
vn -0.481186 0 -0.876619 
vn -0.590402 0 -0.807109 
vn -0.53692 0 -0.843633 
vn -0.641408 0 -0.7672 
vn -0.590402 0 -0.807109 
vn -0.689724 0 -0.724073 
vn -0.641408 0 -0.7672 
vn -0.735146 0 -0.677908 
vn -0.689724 0 -0.724073 
vn -0.777486 0 -0.628901 
vn -0.735146 0 -0.677908 
vn -0.816564 0 -0.577255 
vn -0.777486 0 -0.628901 
vn -0.852217 0 -0.523189 
vn -0.816564 0 -0.577255 
vn -0.884295 0 -0.466928 
vn -0.852217 0 -0.523189 
vn -0.912665 0 -0.408708 
vn -0.884295 0 -0.466928 
vn -0.937207 0 -0.348774 
vn -0.912665 0 -0.408708 
vn -0.957817 0 -0.287378 
vn -0.937207 0 -0.348774 
vn -0.974411 0 -0.224776 
vn -0.957817 0 -0.287378 
vn -0.986917 0 -0.161231 
vn -0.974411 0 -0.224776 
vn -0.995283 0 -0.0970099 
vn -0.986917 0 -0.161231 
vn -0.999476 0 -0.0323819 
vn -0.995283 0 -0.0970099 
vn -0.999476 0 0.0323819 
vn -1 0 3.67394e-16 
vn -0.999476 0 -0.0323819 
vn -0.995283 0 0.0970099 
vn -0.986917 0 0.161231 
vn -0.974411 0 0.224776 
vn -0.957817 0 0.287378 
vn -0.937207 0 0.348774 
vn -0.912665 0 0.408708 
vn -0.884295 0 0.466928 
vn -0.852217 0 0.523189 
vn -0.816564 0 0.577255 
vn -0.777486 0 0.628901 
vn -0.735146 0 0.677908 
vn -0.689724 0 0.724073 
vn -0.641408 0 0.7672 
vn -0.590402 0 0.807109 
vn -0.53692 0 0.843633 
vn -0.481186 0 0.876619 
vn -0.423433 0 0.905927 
vn -0.363905 0 0.931436 
vn -0.30285 0 0.953038 
vn -0.240525 0 0.970643 
vn -0.177191 0 0.984176 
vn -0.113114 0 0.993582 
vn -0.0485622 0 0.99882 
vn 0.0161931 0 0.999869 
vn 0.0808804 0 0.996724 
vn 0.145229 0 0.989398 
vn 0.208968 0 0.977923 
vn 0.27183 0 0.962345 
vn 0.333552 0 0.942732 
vn 0.393876 0 0.919164 
vn 0.452547 0 0.891741 
vn 0.50932 0 0.860577 
vn 0.563957 0 0.825804 
vn 0.616228 0 0.787567 
vn 0.665915 0 0.746027 
vn 0.712809 0 0.701358 
vn 0.756713 0 0.653747 
vn 0.797443 0 0.603395 
vn 0.834828 0 0.550511 
vn 0.868712 0 0.495318 
vn 0.898952 0 0.438048 
vn 0.925421 0 0.37894 
vn 0.948009 0 0.318243 
vn 0.966621 0 0.256211 
vn 0.981178 0 0.193105 
vn 0.99162 0 0.129188 
vn 0.997903 0 0.0647298 
vn 0 1 0 
vn -1 0 0 
vn -0.998276 0 -0.0586876 
vn -0.993112 0 -0.117173 
vn -0.984523 0 -0.175254 
vn -0.972541 0 -0.232732 
vn -0.957206 0 -0.289407 
vn -0.938572 0 -0.345084 
vn -0.916702 0 -0.399572 
vn -0.891672 0 -0.452682 
vn -0.863568 0 -0.504232 
vn -0.832488 0 -0.554044 
vn -0.798537 0 -0.601945 
vn -0.761834 0 -0.647772 
vn -0.722505 0 -0.691366 
vn -0.680685 0 -0.732576 
vn -0.636519 0 -0.771261 
vn -0.590158 0 -0.807288 
vn -0.541763 0 -0.840531 
vn -0.4915 0 -0.870877 
vn -0.439544 0 -0.898221 
vn -0.386072 0 -0.922469 
vn -0.331269 0 -0.943536 
vn -0.275324 0 -0.961352 
vn -0.21843 0 -0.975853 
vn -0.160783 0 -0.98699 
vn -0.102582 0 -0.994725 
vn -0.0440268 0 -0.99903 
vn 0.0146798 0 -0.999892 
vn 0.0733358 0 -0.997307 
vn 0.131739 0 -0.991284 
vn 0.189688 0 -0.981844 
vn 0.246983 0 -0.96902 
vn 0.303427 0 -0.952855 
vn 0.358825 0 -0.933405 
vn 0.412986 0 -0.910738 
vn 0.465723 0 -0.884931 
vn 0.516855 0 -0.856073 
vn 0.566205 0 -0.824265 
vn 0.613603 0 -0.789615 
vn 0.658886 0 -0.752243 
vn 0.701897 0 -0.712278 
vn 0.74249 0 -0.669858 
vn 0.780522 0 -0.625128 
vn 0.815864 0 -0.578244 
vn 0.848394 0 -0.529366 
vn 0.877999 0 -0.478663 
vn 0.904577 0 -0.426311 
vn 0.928037 0 -0.372488 
vn 0.948298 0 -0.317382 
vn 0.96529 0 -0.261182 
vn 0.978954 0 -0.204081 
vn 0.989244 0 -0.146277 
vn 0.996123 0 -0.0879682 
vn 0.999569 0 -0.0293565 
vn 0.999569 0 0.0293565 
vn 1 0 -1.22465e-16 
vn 0.999569 0 -0.0293565 
vn 0.996123 0 0.0879682 
vn 0.989244 0 0.146277 
vn 0.978954 0 0.204081 
vn 0.96529 0 0.261182 
vn 0.948298 0 0.317382 
vn 0.928037 0 0.372488 
vn 0.904577 0 0.426311 
vn 0.877999 0 0.478663 
vn 0.848394 0 0.529366 
vn 0.815864 0 0.578244 
vn 0.780522 0 0.625128 
vn 0.74249 0 0.669858 
vn 0.701897 0 0.712278 
vn 0.658886 0 0.752243 
vn 0.613603 0 0.789615 
vn 0.566205 0 0.824265 
vn 0.516855 0 0.856073 
vn 0.465723 0 0.884931 
vn 0.412986 0 0.910738 
vn 0.358825 0 0.933405 
vn 0.303427 0 0.952855 
vn 0.246983 0 0.96902 
vn 0.189688 0 0.981844 
vn 0.131739 0 0.991284 
vn 0.0733358 0 0.997307 
vn 0.0146798 0 0.999892 
vn -0.0440268 0 0.99903 
vn -0.102582 0 0.994725 
vn -0.160783 0 0.98699 
vn -0.21843 0 0.975853 
vn -0.275324 0 0.961352 
vn -0.331269 0 0.943536 
vn -0.386072 0 0.922469 
vn -0.439544 0 0.898221 
vn -0.4915 0 0.870877 
vn -0.541763 0 0.840531 
vn -0.590158 0 0.807288 
vn -0.636519 0 0.771261 
vn -0.680685 0 0.732576 
vn -0.722505 0 0.691366 
vn -0.761834 0 0.647772 
vn -0.798537 0 0.601945 
vn -0.832488 0 0.554044 
vn -0.863568 0 0.504232 
vn -0.891672 0 0.452682 
vn -0.916702 0 0.399572 
vn -0.938572 0 0.345084 
vn -0.957206 0 0.289407 
vn -0.972541 0 0.232732 
vn -0.984523 0 0.175254 
vn -0.993112 0 0.117173 
vn -0.998276 0 0.0586876 
vn 0 -1 0 
usemtl 0.615686_0.811765_0.929412_0.000000_0.000000
o mesh0
f 1//1 2//2 3//2 
f 4//3 1//1 5//4 
f 6//5 4//3 7//6 
f 8//7 6//5 9//8 
f 10//9 8//7 11//10 
f 12//11 10//9 13//12 
f 14//13 12//11 15//14 
f 16//15 14//13 17//16 
f 18//17 16//15 19//18 
f 20//19 18//17 21//20 
f 22//21 20//19 23//22 
f 24//23 22//21 25//24 
f 26//25 24//23 27//26 
f 28//27 26//25 29//28 
f 30//29 28//27 31//30 
f 32//31 30//29 33//32 
f 34//33 32//31 35//34 
f 36//35 34//33 37//36 
f 38//37 36//35 39//38 
f 40//39 38//37 41//40 
f 42//41 40//39 43//42 
f 44//43 42//41 45//44 
f 46//45 44//43 47//46 
f 48//47 46//45 49//48 
f 50//49 48//47 51//50 
f 52//51 50//49 53//52 
f 54//53 52//51 55//54 
f 56//55 54//53 57//56 
f 58//57 56//55 59//58 
f 60//59 58//57 61//60 
f 62//61 60//59 63//62 
f 64//63 62//61 65//64 
f 66//65 64//63 67//66 
f 68//67 66//65 69//68 
f 70//69 68//67 71//70 
f 72//71 70//69 73//72 
f 74//73 72//71 75//74 
f 76//75 74//73 77//76 
f 78//77 76//75 79//78 
f 80//79 78//77 81//80 
f 82//81 80//79 83//82 
f 84//83 82//81 85//84 
f 86//85 84//83 87//86 
f 88//87 86//85 89//88 
f 90//89 88//87 91//90 
f 92//91 90//89 93//92 
f 94//93 92//91 95//94 
f 96//95 94//93 97//96 
f 98//97 99//97 100//98 
f 96//95 101//99 102//98 
f 102//98 100//98 96//95 
f 103//100 99//97 98//97 
f 104//101 103//100 105//100 
f 106//102 104//101 107//101 
f 108//103 106//102 109//102 
f 110//104 108//103 111//103 
f 112//105 110//104 113//104 
f 114//106 112//105 115//105 
f 116//107 114//106 117//106 
f 118//108 116//107 119//107 
f 120//109 118//108 121//108 
f 122//110 120//109 123//109 
f 124//111 122//110 125//110 
f 126//112 124//111 127//111 
f 128//113 126//112 129//112 
f 130//114 128//113 131//113 
f 132//115 130//114 133//114 
f 134//116 132//115 135//115 
f 136//117 134//116 137//116 
f 138//118 136//117 139//117 
f 140//119 138//118 141//118 
f 142//120 140//119 143//119 
f 144//121 142//120 145//120 
f 146//122 144//121 147//121 
f 148//123 146//122 149//122 
f 150//124 148//123 151//123 
f 152//125 150//124 153//124 
f 154//126 152//125 155//125 
f 156//127 154//126 157//126 
f 158//128 156//127 159//127 
f 160//129 158//128 161//128 
f 162//130 160//129 163//129 
f 164//131 162//130 165//130 
f 166//132 164//131 167//131 
f 168//133 166//132 169//132 
f 170//134 168//133 171//133 
f 172//135 170//134 173//134 
f 174//136 172//135 175//135 
f 176//137 174//136 177//136 
f 178//138 176//137 179//137 
f 180//139 178//138 181//138 
f 182//140 180//139 183//139 
f 184//141 182//140 185//140 
f 186//142 184//141 187//141 
f 188//143 186//142 189//142 
f 190//144 188//143 191//143 
f 192//145 190//144 193//144 
f 194//146 192//145 195//145 
f 2//2 194//146 196//146 
f 196//146 3//2 2//2 
f 195//145 196//146 194//146 
f 193//144 195//145 192//145 
f 191//143 193//144 190//144 
f 189//142 191//143 188//143 
f 187//141 189//142 186//142 
f 185//140 187//141 184//141 
f 183//139 185//140 182//140 
f 181//138 183//139 180//139 
f 179//137 181//138 178//138 
f 177//136 179//137 176//137 
f 175//135 177//136 174//136 
f 173//134 175//135 172//135 
f 171//133 173//134 170//134 
f 169//132 171//133 168//133 
f 167//131 169//132 166//132 
f 165//130 167//131 164//131 
f 163//129 165//130 162//130 
f 161//128 163//129 160//129 
f 159//127 161//128 158//128 
f 157//126 159//127 156//127 
f 155//125 157//126 154//126 
f 153//124 155//125 152//125 
f 151//123 153//124 150//124 
f 149//122 151//123 148//123 
f 147//121 149//122 146//122 
f 145//120 147//121 144//121 
f 143//119 145//120 142//120 
f 141//118 143//119 140//119 
f 139//117 141//118 138//118 
f 137//116 139//117 136//117 
f 135//115 137//116 134//116 
f 133//114 135//115 132//115 
f 131//113 133//114 130//114 
f 129//112 131//113 128//113 
f 127//111 129//112 126//112 
f 125//110 127//111 124//111 
f 123//109 125//110 122//110 
f 121//108 123//109 120//109 
f 119//107 121//108 118//108 
f 117//106 119//107 116//107 
f 115//105 117//106 114//106 
f 113//104 115//105 112//105 
f 111//103 113//104 110//104 
f 109//102 111//103 108//103 
f 107//101 109//102 106//102 
f 105//100 107//101 104//101 
f 98//97 105//100 103//100 
f 100//98 102//98 98//97 
f 97//96 101//99 96//95 
f 95//94 97//96 94//93 
f 93//92 95//94 92//91 
f 91//90 93//92 90//89 
f 89//88 91//90 88//87 
f 87//86 89//88 86//85 
f 85//84 87//86 84//83 
f 83//82 85//84 82//81 
f 81//80 83//82 80//79 
f 79//78 81//80 78//77 
f 77//76 79//78 76//75 
f 75//74 77//76 74//73 
f 73//72 75//74 72//71 
f 71//70 73//72 70//69 
f 69//68 71//70 68//67 
f 67//66 69//68 66//65 
f 65//64 67//66 64//63 
f 63//62 65//64 62//61 
f 61//60 63//62 60//59 
f 59//58 61//60 58//57 
f 57//56 59//58 56//55 
f 55//54 57//56 54//53 
f 53//52 55//54 52//51 
f 51//50 53//52 50//49 
f 49//48 51//50 48//47 
f 47//46 49//48 46//45 
f 45//44 47//46 44//43 
f 43//42 45//44 42//41 
f 41//40 43//42 40//39 
f 39//38 41//40 38//37 
f 37//36 39//38 36//35 
f 35//34 37//36 34//33 
f 33//32 35//34 32//31 
f 31//30 33//32 30//29 
f 29//28 31//30 28//27 
f 27//26 29//28 26//25 
f 25//24 27//26 24//23 
f 23//22 25//24 22//21 
f 21//20 23//22 20//19 
f 19//18 21//20 18//17 
f 17//16 19//18 16//15 
f 15//14 17//16 14//13 
f 13//12 15//14 12//11 
f 11//10 13//12 10//9 
f 9//8 11//10 8//7 
f 7//6 9//8 6//5 
f 5//4 7//6 4//3 
f 3//2 5//4 1//1 
o mesh1
f 197//147 198//147 171//147 
f 199//147 200//147 157//147 
f 200//147 201//147 159//147 
f 201//147 202//147 161//147 
f 203//147 163//147 161//147 
f 204//147 165//147 163//147 
f 205//147 167//147 165//147 
f 206//147 169//147 167//147 
f 169//147 206//147 197//147 
f 159//147 157//147 200//147 
f 161//147 202//147 203//147 
f 165//147 204//147 205//147 
f 171//147 169//147 197//147 
f 207//147 208//147 177//147 
f 208//147 209//147 179//147 
f 210//147 71//147 69//147 
f 211//147 212//147 102//147 
f 213//147 98//147 102//147 
f 161//147 159//147 201//147 
f 167//147 205//147 206//147 
f 179//147 177//147 208//147 
f 214//147 181//147 179//147 
f 69//147 215//147 210//147 
f 216//147 217//147 73//147 
f 217//147 218//147 75//147 
f 218//147 219//147 77//147 
f 220//147 221//147 81//147 
f 222//147 83//147 81//147 
f 223//147 211//147 101//147 
f 102//147 212//147 213//147 
f 224//147 225//147 133//147 
f 163//147 203//147 204//147 
f 198//147 226//147 173//147 
f 226//147 207//147 175//147 
f 179//147 209//147 214//147 
f 227//147 185//147 183//147 
f 228//147 187//147 185//147 
f 229//147 5//147 3//147 
f 230//147 7//147 5//147 
f 231//147 9//147 7//147 
f 232//147 11//147 9//147 
f 73//147 71//147 216//147 
f 77//147 75//147 218//147 
f 219//147 220//147 79//147 
f 81//147 221//147 222//147 
f 102//147 101//147 211//147 
f 233//147 105//147 98//147 
f 234//147 131//147 129//147 
f 131//147 234//147 224//147 
f 173//147 171//147 198//147 
f 177//147 175//147 207//147 
f 185//147 227//147 228//147 
f 235//147 189//147 187//147 
f 236//147 237//147 191//147 
f 5//147 229//147 230//147 
f 9//147 231//147 232//147 
f 238//147 13//147 11//147 
f 239//147 33//147 31//147 
f 240//147 241//147 37//147 
f 241//147 242//147 39//147 
f 243//147 67//147 65//147 
f 215//147 69//147 67//147 
f 75//147 73//147 217//147 
f 81//147 79//147 220//147 
f 244//147 91//147 89//147 
f 245//147 246//147 93//147 
f 246//147 247//147 95//147 
f 247//147 223//147 97//147 
f 98//147 213//147 233//147 
f 248//147 249//147 113//147 
f 250//147 251//147 121//147 
f 252//147 123//147 121//147 
f 253//147 125//147 123//147 
f 254//147 127//147 125//147 
f 255//147 129//147 127//147 
f 133//147 131//147 224//147 
f 256//147 257//147 137//147 
f 257//147 258//147 139//147 
f 175//147 173//147 226//147 
f 259//147 183//147 181//147 
f 187//147 228//147 235//147 
f 189//147 235//147 236//147 
f 260//147 261//147 196//147 
f 261//147 262//147 3//147 
f 7//147 230//147 231//147 
f 11//147 232//147 238//147 
f 263//147 264//147 15//147 
f 264//147 265//147 17//147 
f 265//147 266//147 19//147 
f 266//147 267//147 21//147 
f 268//147 31//147 29//147 
f 31//147 268//147 239//147 
f 269//147 240//147 35//147 
f 39//147 37//147 241//147 
f 67//147 243//147 215//147 
f 79//147 77//147 219//147 
f 270//147 85//147 83//147 
f 271//147 87//147 85//147 
f 89//147 272//147 244//147 
f 95//147 93//147 246//147 
f 101//147 97//147 223//147 
f 273//147 107//147 105//147 
f 111//147 274//147 248//147 
f 249//147 275//147 115//147 
f 121//147 251//147 252//147 
f 125//147 253//147 254//147 
f 129//147 255//147 234//147 
f 225//147 256//147 135//147 
f 139//147 137//147 257//147 
f 258//147 276//147 141//147 
f 181//147 214//147 259//147 
f 191//147 189//147 236//147 
f 237//147 277//147 193//147 
f 277//147 260//147 195//147 
f 3//147 196//147 261//147 
f 238//147 263//147 13//147 
f 17//147 15//147 264//147 
f 21//147 19//147 266//147 
f 278//147 29//147 27//147 
f 239//147 269//147 33//147 
f 37//147 35//147 240//147 
f 242//147 279//147 41//147 
f 280//147 43//147 41//147 
f 281//147 45//147 43//147 
f 282//147 283//147 53//147 
f 210//147 216//147 71//147 
f 85//147 270//147 271//147 
f 272//147 89//147 87//147 
f 93//147 91//147 245//147 
f 105//147 233//147 273//147 
f 284//147 109//147 107//147 
f 274//147 111//147 109//147 
f 115//147 113//147 249//147 
f 123//147 252//147 253//147 
f 135//147 133//147 225//147 
f 141//147 139//147 258//147 
f 285//147 143//147 141//147 
f 286//147 151//147 149//147 
f 183//147 259//147 227//147 
f 195//147 193//147 277//147 
f 3//147 262//147 229//147 
f 19//147 17//147 265//147 
f 267//147 287//147 23//147 
f 288//147 25//147 23//147 
f 289//147 27//147 25//147 
f 29//147 278//147 268//147 
f 41//147 39//147 242//147 
f 43//147 280//147 281//147 
f 290//147 47//147 45//147 
f 291//147 49//147 47//147 
f 51//147 292//147 282//147 
f 283//147 293//147 55//147 
f 294//147 295//147 59//147 
f 295//147 296//147 61//147 
f 297//147 63//147 61//147 
f 298//147 65//147 63//147 
f 83//147 222//147 270//147 
f 244//147 245//147 91//147 
f 107//147 273//147 284//147 
f 113//147 111//147 248//147 
f 127//147 254//147 255//147 
f 141//147 276//147 285//147 
f 299//147 145//147 143//147 
f 300//147 147//147 145//147 
f 301//147 149//147 147//147 
f 149//147 301//147 286//147 
f 302//147 303//147 153//147 
f 303//147 199//147 155//147 
f 193//147 191//147 237//147 
f 15//147 13//147 263//147 
f 23//147 287//147 288//147 
f 27//147 289//147 278//147 
f 41//147 279//147 280//147 
f 47//147 290//147 291//147 
f 55//147 53//147 283//147 
f 293//147 294//147 57//147 
f 61//147 59//147 295//147 
f 63//147 297//147 298//147 
f 87//147 271//147 272//147 
f 109//147 284//147 274//147 
f 275//147 304//147 117//147 
f 304//147 250//147 119//147 
f 137//147 135//147 256//147 
f 145//147 299//147 300//147 
f 286//147 302//147 151//147 
f 155//147 153//147 303//147 
f 196//147 195//147 260//147 
f 25//147 288//147 289//147 
f 45//147 281//147 290//147 
f 292//147 51//147 49//147 
f 57//147 55//147 293//147 
f 61//147 296//147 297//147 
f 97//147 95//147 247//147 
f 119//147 117//147 304//147 
f 143//147 285//147 299//147 
f 153//147 151//147 302//147 
f 23//147 21//147 267//147 
f 49//147 291//147 292//147 
f 59//147 57//147 294//147 
f 117//147 115//147 275//147 
f 147//147 300//147 301//147 
f 35//147 33//147 269//147 
f 65//147 298//147 243//147 
f 157//147 155//147 199//147 
f 121//147 119//147 250//147 
f 53//147 51//147 282//147 
o mesh2
f 305//148 262//148 261//149 
f 306//149 261//149 260//150 
f 307//150 260//150 277//151 
f 308//151 277//151 237//152 
f 309//152 237//152 236//153 
f 310//153 236//153 235//154 
f 311//154 235//154 228//155 
f 312//155 228//155 227//156 
f 313//156 227//156 259//157 
f 314//157 259//157 214//158 
f 315//158 214//158 209//159 
f 316//159 209//159 208//160 
f 317//160 208//160 207//161 
f 318//161 207//161 226//162 
f 319//162 226//162 198//163 
f 320//163 198//163 197//164 
f 321//164 197//164 206//165 
f 322//165 206//165 205//166 
f 323//166 205//166 204//167 
f 324//167 204//167 203//168 
f 325//168 203//168 202//169 
f 326//169 202//169 201//170 
f 327//170 201//170 200//171 
f 328//171 200//171 199//172 
f 329//172 199//172 303//173 
f 330//173 303//173 302//174 
f 331//174 302//174 286//175 
f 332//175 286//175 301//176 
f 333//176 301//176 300//177 
f 334//177 300//177 299//178 
f 335//178 299//178 285//179 
f 336//179 285//179 276//180 
f 337//180 276//180 258//181 
f 338//181 258//181 257//182 
f 339//182 257//182 256//183 
f 340//183 256//183 225//184 
f 341//184 225//184 224//185 
f 342//185 224//185 234//186 
f 343//186 234//186 255//187 
f 344//187 255//187 254//188 
f 345//188 254//188 253//189 
f 346//189 253//189 252//190 
f 347//190 252//190 251//191 
f 348//191 251//191 250//192 
f 349//192 250//192 304//193 
f 350//193 304//193 275//194 
f 351//194 275//194 249//195 
f 352//195 249//195 248//196 
f 353//196 248//196 274//197 
f 354//197 274//197 284//198 
f 355//198 284//198 273//199 
f 356//199 273//199 233//200 
f 357//200 233//200 213//201 
f 211//202 358//202 359//203 
f 360//204 213//201 212//203 
f 212//203 359//203 360//204 
f 358//202 211//202 223//205 
f 361//205 223//205 247//206 
f 362//206 247//206 246//207 
f 363//207 246//207 245//208 
f 364//208 245//208 244//209 
f 365//209 244//209 272//210 
f 366//210 272//210 271//211 
f 367//211 271//211 270//212 
f 368//212 270//212 222//213 
f 369//213 222//213 221//214 
f 370//214 221//214 220//215 
f 371//215 220//215 219//216 
f 372//216 219//216 218//217 
f 373//217 218//217 217//218 
f 374//218 217//218 216//219 
f 375//219 216//219 210//220 
f 376//220 210//220 215//221 
f 377//221 215//221 243//222 
f 378//222 243//222 298//223 
f 379//223 298//223 297//224 
f 380//224 297//224 296//225 
f 381//225 296//225 295//226 
f 382//226 295//226 294//227 
f 383//227 294//227 293//228 
f 384//228 293//228 283//229 
f 385//229 283//229 282//230 
f 386//230 282//230 292//231 
f 387//231 292//231 291//232 
f 388//232 291//232 290//233 
f 389//233 290//233 281//234 
f 390//234 281//234 280//235 
f 391//235 280//235 279//236 
f 392//236 279//236 242//237 
f 393//237 242//237 241//238 
f 394//238 241//238 240//239 
f 395//239 240//239 269//240 
f 396//240 269//240 239//241 
f 397//241 239//241 268//242 
f 398//242 268//242 278//243 
f 399//243 278//243 289//244 
f 400//244 289//244 288//245 
f 401//245 288//245 287//246 
f 402//246 287//246 267//247 
f 403//247 267//247 266//248 
f 404//248 266//248 265//249 
f 405//249 265//249 264//250 
f 406//250 264//250 263//251 
f 407//251 263//251 238//252 
f 408//252 238//252 232//253 
f 409//253 232//253 231//254 
f 410//254 231//254 230//255 
f 411//255 230//255 229//256 
f 412//256 229//256 262//148 
f 262//148 305//148 412//256 
f 229//256 412//256 411//255 
f 230//255 411//255 410//254 
f 231//254 410//254 409//253 
f 232//253 409//253 408//252 
f 238//252 408//252 407//251 
f 263//251 407//251 406//250 
f 264//250 406//250 405//249 
f 265//249 405//249 404//248 
f 266//248 404//248 403//247 
f 267//247 403//247 402//246 
f 287//246 402//246 401//245 
f 288//245 401//245 400//244 
f 289//244 400//244 399//243 
f 278//243 399//243 398//242 
f 268//242 398//242 397//241 
f 239//241 397//241 396//240 
f 269//240 396//240 395//239 
f 240//239 395//239 394//238 
f 241//238 394//238 393//237 
f 242//237 393//237 392//236 
f 279//236 392//236 391//235 
f 280//235 391//235 390//234 
f 281//234 390//234 389//233 
f 290//233 389//233 388//232 
f 291//232 388//232 387//231 
f 292//231 387//231 386//230 
f 282//230 386//230 385//229 
f 283//229 385//229 384//228 
f 293//228 384//228 383//227 
f 294//227 383//227 382//226 
f 295//226 382//226 381//225 
f 296//225 381//225 380//224 
f 297//224 380//224 379//223 
f 298//223 379//223 378//222 
f 243//222 378//222 377//221 
f 215//221 377//221 376//220 
f 210//220 376//220 375//219 
f 216//219 375//219 374//218 
f 217//218 374//218 373//217 
f 218//217 373//217 372//216 
f 219//216 372//216 371//215 
f 220//215 371//215 370//214 
f 221//214 370//214 369//213 
f 222//213 369//213 368//212 
f 270//212 368//212 367//211 
f 271//211 367//211 366//210 
f 272//210 366//210 365//209 
f 244//209 365//209 364//208 
f 245//208 364//208 363//207 
f 246//207 363//207 362//206 
f 247//206 362//206 361//205 
f 223//205 361//205 358//202 
f 359//203 212//203 211//202 
f 213//201 360//204 357//200 
f 233//200 357//200 356//199 
f 273//199 356//199 355//198 
f 284//198 355//198 354//197 
f 274//197 354//197 353//196 
f 248//196 353//196 352//195 
f 249//195 352//195 351//194 
f 275//194 351//194 350//193 
f 304//193 350//193 349//192 
f 250//192 349//192 348//191 
f 251//191 348//191 347//190 
f 252//190 347//190 346//189 
f 253//189 346//189 345//188 
f 254//188 345//188 344//187 
f 255//187 344//187 343//186 
f 234//186 343//186 342//185 
f 224//185 342//185 341//184 
f 225//184 341//184 340//183 
f 256//183 340//183 339//182 
f 257//182 339//182 338//181 
f 258//181 338//181 337//180 
f 276//180 337//180 336//179 
f 285//179 336//179 335//178 
f 299//178 335//178 334//177 
f 300//177 334//177 333//176 
f 301//176 333//176 332//175 
f 286//175 332//175 331//174 
f 302//174 331//174 330//173 
f 303//173 330//173 329//172 
f 199//172 329//172 328//171 
f 200//171 328//171 327//170 
f 201//170 327//170 326//169 
f 202//169 326//169 325//168 
f 203//168 325//168 324//167 
f 204//167 324//167 323//166 
f 205//166 323//166 322//165 
f 206//165 322//165 321//164 
f 197//164 321//164 320//163 
f 198//163 320//163 319//162 
f 226//162 319//162 318//161 
f 207//161 318//161 317//160 
f 208//160 317//160 316//159 
f 209//159 316//159 315//158 
f 214//158 315//158 314//157 
f 259//157 314//157 313//156 
f 227//156 313//156 312//155 
f 228//155 312//155 311//154 
f 235//154 311//154 310//153 
f 236//153 310//153 309//152 
f 237//152 309//152 308//151 
f 277//151 308//151 307//150 
f 260//150 307//150 306//149 
f 261//149 306//149 305//148 
o mesh3
f 315//257 316//257 176//257 
f 317//257 174//257 176//257 
f 360//257 359//257 100//257 
f 358//257 96//257 100//257 
f 176//257 316//257 317//257 
f 318//257 172//257 174//257 
f 321//257 166//257 168//257 
f 100//257 359//257 358//257 
f 361//257 94//257 96//257 
f 408//257 409//257 8//257 
f 409//257 410//257 6//257 
f 410//257 411//257 4//257 
f 174//257 317//257 318//257 
f 319//257 170//257 172//257 
f 168//257 320//257 321//257 
f 322//257 323//257 164//257 
f 323//257 324//257 162//257 
f 324//257 325//257 160//257 
f 357//257 360//257 99//257 
f 96//257 358//257 361//257 
f 397//257 398//257 28//257 
f 10//257 407//257 408//257 
f 4//257 6//257 410//257 
f 172//257 318//257 319//257 
f 320//257 168//257 170//257 
f 164//257 166//257 322//257 
f 160//257 162//257 324//257 
f 353//257 108//257 110//257 
f 356//257 357//257 103//257 
f 100//257 99//257 360//257 
f 369//257 370//257 78//257 
f 371//257 76//257 78//257 
f 386//257 48//257 50//257 
f 394//257 34//257 36//257 
f 395//257 32//257 34//257 
f 30//257 396//257 397//257 
f 398//257 399//257 26//257 
f 6//257 8//257 409//257 
f 411//257 412//257 1//257 
f 311//257 312//257 184//257 
f 312//257 313//257 182//257 
f 170//257 319//257 320//257 
f 162//257 164//257 323//257 
f 325//257 326//257 158//257 
f 327//257 156//257 158//257 
f 352//257 110//257 112//257 
f 110//257 352//257 353//257 
f 99//257 103//257 357//257 
f 362//257 92//257 94//257 
f 78//257 370//257 371//257 
f 372//257 74//257 76//257 
f 373//257 72//257 74//257 
f 374//257 70//257 72//257 
f 376//257 377//257 66//257 
f 385//257 50//257 52//257 
f 50//257 385//257 386//257 
f 388//257 389//257 44//257 
f 389//257 390//257 42//257 
f 390//257 391//257 40//257 
f 391//257 392//257 38//257 
f 34//257 394//257 395//257 
f 396//257 30//257 32//257 
f 26//257 28//257 398//257 
f 399//257 400//257 24//257 
f 404//257 16//257 18//257 
f 405//257 14//257 16//257 
f 406//257 12//257 14//257 
f 407//257 10//257 12//257 
f 1//257 4//257 411//257 
f 412//257 305//257 2//257 
f 306//257 194//257 2//257 
f 307//257 192//257 194//257 
f 310//257 186//257 188//257 
f 182//257 184//257 312//257 
f 313//257 314//257 180//257 
f 321//257 322//257 166//257 
f 158//257 326//257 327//257 
f 328//257 154//257 156//257 
f 329//257 152//257 154//257 
f 353//257 354//257 108//257 
f 354//257 355//257 106//257 
f 355//257 356//257 104//257 
f 94//257 361//257 362//257 
f 363//257 90//257 92//257 
f 364//257 88//257 90//257 
f 365//257 366//257 86//257 
f 76//257 371//257 372//257 
f 72//257 373//257 374//257 
f 375//257 68//257 70//257 
f 68//257 375//257 376//257 
f 384//257 52//257 54//257 
f 386//257 387//257 48//257 
f 42//257 44//257 389//257 
f 38//257 40//257 391//257 
f 393//257 36//257 38//257 
f 32//257 395//257 396//257 
f 24//257 26//257 399//257 
f 400//257 401//257 22//257 
f 401//257 402//257 20//257 
f 403//257 18//257 20//257 
f 16//257 404//257 405//257 
f 12//257 406//257 407//257 
f 2//257 1//257 412//257 
f 194//257 306//257 307//257 
f 308//257 190//257 192//257 
f 309//257 188//257 190//257 
f 188//257 309//257 310//257 
f 180//257 182//257 313//257 
f 158//257 160//257 325//257 
f 154//257 328//257 329//257 
f 332//257 333//257 146//257 
f 339//257 134//257 136//257 
f 340//257 132//257 134//257 
f 342//257 128//257 130//257 
f 350//257 114//257 116//257 
f 351//257 112//257 114//257 
f 106//257 108//257 354//257 
f 103//257 104//257 356//257 
f 90//257 363//257 364//257 
f 88//257 364//257 365//257 
f 367//257 368//257 82//257 
f 368//257 369//257 80//257 
f 74//257 372//257 373//257 
f 66//257 68//257 376//257 
f 379//257 380//257 60//257 
f 380//257 381//257 58//257 
f 382//257 56//257 58//257 
f 383//257 54//257 56//257 
f 52//257 384//257 385//257 
f 387//257 388//257 46//257 
f 40//257 42//257 390//257 
f 36//257 393//257 394//257 
f 22//257 24//257 400//257 
f 20//257 402//257 403//257 
f 14//257 405//257 406//257 
f 2//257 305//257 306//257 
f 190//257 308//257 309//257 
f 184//257 186//257 311//257 
f 314//257 315//257 178//257 
f 156//257 327//257 328//257 
f 148//257 331//257 332//257 
f 333//257 334//257 144//257 
f 334//257 335//257 142//257 
f 335//257 336//257 140//257 
f 338//257 136//257 138//257 
f 134//257 339//257 340//257 
f 130//257 341//257 342//257 
f 343//257 344//257 126//257 
f 114//257 350//257 351//257 
f 104//257 106//257 355//257 
f 86//257 88//257 365//257 
f 366//257 367//257 84//257 
f 80//257 82//257 368//257 
f 70//257 374//257 375//257 
f 377//257 378//257 64//257 
f 378//257 379//257 62//257 
f 58//257 60//257 380//257 
f 56//257 382//257 383//257 
f 46//257 48//257 387//257 
f 38//257 392//257 393//257 
f 20//257 22//257 401//257 
f 8//257 10//257 408//257 
f 310//257 311//257 186//257 
f 176//257 178//257 315//257 
f 144//257 146//257 333//257 
f 140//257 142//257 335//257 
f 336//257 337//257 138//257 
f 136//257 338//257 339//257 
f 341//257 130//257 132//257 
f 126//257 128//257 343//257 
f 112//257 351//257 352//257 
f 84//257 86//257 366//257 
f 78//257 80//257 369//257 
f 62//257 64//257 378//257 
f 58//257 381//257 382//257 
f 44//257 46//257 388//257 
f 18//257 403//257 404//257 
f 178//257 180//257 314//257 
f 142//257 144//257 334//257 
f 138//257 337//257 338//257 
f 342//257 343//257 128//257 
f 344//257 345//257 124//257 
f 345//257 346//257 122//257 
f 346//257 347//257 120//257 
f 347//257 348//257 118//257 
f 349//257 116//257 118//257 
f 92//257 362//257 363//257 
f 64//257 66//257 377//257 
f 54//257 383//257 384//257 
f 192//257 307//257 308//257 
f 138//257 140//257 336//257 
f 124//257 126//257 344//257 
f 120//257 122//257 346//257 
f 118//257 348//257 349//257 
f 82//257 84//257 367//257 
f 28//257 30//257 397//257 
f 330//257 150//257 152//257 
f 331//257 148//257 150//257 
f 132//257 340//257 341//257 
f 118//257 120//257 347//257 
f 60//257 62//257 379//257 
f 150//257 330//257 331//257 
f 122//257 124//257 345//257 
f 152//257 329//257 330//257 
f 116//257 349//257 350//257 
f 146//257 148//257 332//257 
