# OBJ generated by ONSHAPE BY PTC INC, 1.204 Units = meters
mtllib lh2.mtl
g Part 1
v -5 6 0.5 
v -5 6 -0.5 
v -6 6 -0.5 
v -6 6 0.5 
v -6 0 -0.5 
v -6 0 0.5 
v -3 0 -0.5 
v -3 0 0.5 
v -5 1 0.5 
v -3 1 0.5 
v -5 1 -0.5 
v -3 1 -0.5 
vn 0 1 0 
vn -1 -1.4803e-16 0 
vn 0 -1 0 
vn 0 0 1 
vn 0 0 -1 
vn 1 4.44089e-16 0 
vn -1.66533e-16 1 0 
usemtl 0.615686_0.811765_0.929412_0.000000_0.000000
o mesh0
f 1//1 2//1 3//1 
f 3//1 4//1 1//1 
o mesh1
f 4//2 3//2 5//2 
f 5//2 6//2 4//2 
o mesh2
f 6//3 5//3 7//3 
f 7//3 8//3 6//3 
o mesh3
f 4//4 6//4 9//4 
f 8//4 10//4 9//4 
f 9//4 6//4 8//4 
f 9//4 1//4 4//4 
o mesh4
f 7//5 5//5 11//5 
f 3//5 2//5 11//5 
f 11//5 5//5 3//5 
f 11//5 12//5 7//5 
o mesh5
f 8//6 7//6 12//6 
f 12//6 10//6 8//6 
o mesh6
f 10//7 12//7 11//7 
f 11//7 9//7 10//7 
o mesh7
f 9//6 11//6 2//6 
f 2//6 1//6 9//6 
g Part 2
v -1 6 0.5 
v -1 6 -0.5 
v -2 6 -0.5 
v -2 6 0.5 
v -2 -6.23386e-16 -0.5 
v -2 -6.23386e-16 0.5 
v -1 -4.44089e-16 -0.5 
v -1 -4.44089e-16 0.5 
v -1 2.5 -0.5 
v -1 2.5 0.5 
v -7.814e-16 2.5 -0.5 
v -7.814e-16 2.5 0.5 
v 0 -4.005e-16 -0.5 
v 0 -4.005e-16 0.5 
v 1 0 -0.5 
v 1 0 0.5 
v 1 6 -0.5 
v 1 6 0.5 
v -1.82263e-15 6 -0.5 
v -1.82263e-15 6 0.5 
v 1.66533e-16 3.5 0.5 
v -1 3.5 0.5 
v -1 3.5 -0.5 
v 1.66533e-16 3.5 -0.5 
vn 0 1 0 
vn -1 -3.70074e-16 0 
vn 2.39392e-16 -1 0 
vn 1 1.77636e-16 0 
vn -1 -3.06162e-16 0 
vn 2.46331e-16 -1 0 
vn 1 1.85037e-16 0 
vn -8.88178e-16 1 0 
vn 0 0 1 
vn 0 0 -1 
vn -1 -3.05128e-16 0 
vn 0 1 0 
vn 1 1.77636e-16 0 
usemtl 0.647059_0.647059_0.647059_0.000000_0.000000
o mesh8
f 13//8 14//8 15//8 
f 15//8 16//8 13//8 
o mesh9
f 16//9 15//9 17//9 
f 17//9 18//9 16//9 
o mesh10
f 18//10 17//10 19//10 
f 19//10 20//10 18//10 
o mesh11
f 20//11 19//11 21//11 
f 21//11 22//11 20//11 
o mesh12
f 22//10 21//10 23//10 
f 23//10 24//10 22//10 
o mesh13
f 24//12 23//12 25//12 
f 25//12 26//12 24//12 
o mesh14
f 26//13 25//13 27//13 
f 27//13 28//13 26//13 
o mesh15
f 28//14 27//14 29//14 
f 29//14 30//14 28//14 
o mesh16
f 30//15 29//15 31//15 
f 31//15 32//15 30//15 
o mesh17
f 28//16 33//16 24//16 
f 34//16 22//16 24//16 
f 24//16 33//16 34//16 
f 18//16 20//16 22//16 
f 16//16 18//16 34//16 
f 22//16 34//16 18//16 
f 24//16 26//16 28//16 
f 30//16 32//16 33//16 
f 33//16 28//16 30//16 
f 34//16 13//16 16//16 
o mesh18
f 35//17 36//17 23//17 
f 15//17 14//17 35//17 
f 17//17 15//17 21//17 
f 35//17 21//17 15//17 
f 23//17 21//17 35//17 
f 27//17 25//17 23//17 
f 29//17 27//17 36//17 
f 23//17 36//17 27//17 
f 21//17 19//17 17//17 
f 36//17 31//17 29//17 
o mesh19
f 32//18 31//18 36//18 
f 36//18 33//18 32//18 
o mesh20
f 33//19 36//19 35//19 
f 35//19 34//19 33//19 
o mesh21
f 34//20 35//20 14//20 
f 14//20 13//20 34//20 
g Part 3
v 2.08347 8.04782 0.5 
v 2.08347 8.04782 -0.5 
v 2 8 -0.5 
v 2.16603 8.09437 0.5 
v 2.16603 8.09437 -0.5 
v 2.2476 8.13963 0.5 
v 2.2476 8.13963 -0.5 
v 2.3282 8.18361 0.5 
v 2.3282 8.18361 -0.5 
v 2.40783 8.22632 0.5 
v 2.40783 8.22632 -0.5 
v 2.48648 8.26777 0.5 
v 2.48648 8.26777 -0.5 
v 2.56416 8.30798 0.5 
v 2.56416 8.30798 -0.5 
v 2.64087 8.34697 0.5 
v 2.64087 8.34697 -0.5 
v 2.71661 8.38474 0.5 
v 2.71661 8.38474 -0.5 
v 2.79139 8.4213 0.5 
v 2.79139 8.4213 -0.5 
v 2.86521 8.45668 0.5 
v 2.86521 8.45668 -0.5 
v 2.93806 8.49088 0.5 
v 2.93806 8.49088 -0.5 
v 3.00997 8.52392 0.5 
v 3.00997 8.52392 -0.5 
v 3.08092 8.55581 0.5 
v 3.08092 8.55581 -0.5 
v 3.15091 8.58657 0.5 
v 3.15091 8.58657 -0.5 
v 3.21996 8.6162 0.5 
v 3.21996 8.6162 -0.5 
v 3.28807 8.64473 0.5 
v 3.28807 8.64473 -0.5 
v 3.35524 8.67216 0.5 
v 3.35524 8.67216 -0.5 
v 3.42147 8.69851 0.5 
v 3.42147 8.69851 -0.5 
v 3.48676 8.7238 0.5 
v 3.48676 8.7238 -0.5 
v 3.55113 8.74803 0.5 
v 3.55113 8.74803 -0.5 
v 3.61456 8.77122 0.5 
v 3.61456 8.77122 -0.5 
v 3.67708 8.79339 0.5 
v 3.67708 8.79339 -0.5 
v 3.73868 8.81455 0.5 
v 3.73868 8.81455 -0.5 
v 3.79936 8.83471 0.5 
v 3.79936 8.83471 -0.5 
v 3.85913 8.85388 0.5 
v 3.85913 8.85388 -0.5 
v 3.918 8.87209 0.5 
v 3.918 8.87209 -0.5 
v 3.97596 8.88934 0.5 
v 3.97596 8.88934 -0.5 
v 4.03303 8.90565 0.5 
v 4.03303 8.90565 -0.5 
v 4.0892 8.92104 0.5 
v 4.0892 8.92104 -0.5 
v 4.14449 8.93551 0.5 
v 4.14449 8.93551 -0.5 
v 4.19889 8.94908 0.5 
v 4.19889 8.94908 -0.5 
v 4.25242 8.96176 0.5 
v 4.25242 8.96176 -0.5 
v 4.30508 8.97358 0.5 
v 4.30508 8.97358 -0.5 
v 4.35687 8.98454 0.5 
v 4.35687 8.98454 -0.5 
v 4.4078 8.99466 0.5 
v 4.4078 8.99466 -0.5 
v 4.45787 9.00394 0.5 
v 4.45787 9.00394 -0.5 
v 4.50709 9.01241 0.5 
v 4.50709 9.01241 -0.5 
v 4.55547 9.02009 0.5 
v 4.55547 9.02009 -0.5 
v 4.60301 9.02697 0.5 
v 4.60301 9.02697 -0.5 
v 4.64972 9.03308 0.5 
v 4.64972 9.03308 -0.5 
v 4.69561 9.03843 0.5 
v 4.69561 9.03843 -0.5 
v 4.74068 9.04303 0.5 
v 4.74068 9.04303 -0.5 
v 4.78493 9.0469 0.5 
v 4.78493 9.0469 -0.5 
v 4.82838 9.05005 0.5 
v 4.82838 9.05005 -0.5 
v 4.87103 9.0525 0.5 
v 4.87103 9.0525 -0.5 
v 4.91289 9.05425 0.5 
v 4.91289 9.05425 -0.5 
v 4.95221 9.05529 0.5 
v 4.95221 9.05529 -0.5 
v 4.99254 9.05572 0.5 
v 4.99254 9.05572 -0.5 
v 5.03211 9.0555 0.5 
v 5.03211 9.0555 -0.5 
v 5.07091 9.05463 0.5 
v 5.07091 9.05463 -0.5 
v 5.10895 9.05314 0.5 
v 5.10895 9.05314 -0.5 
v 5.14625 9.05102 0.5 
v 5.14625 9.05102 -0.5 
v 5.18281 9.0483 0.5 
v 5.18281 9.0483 -0.5 
v 5.21864 9.04499 0.5 
v 5.21864 9.04499 -0.5 
v 5.25374 9.04109 0.5 
v 5.25374 9.04109 -0.5 
v 5.28812 9.03662 0.5 
v 5.28812 9.03662 -0.5 
v 5.3218 9.0316 0.5 
v 5.3218 9.0316 -0.5 
v 5.35478 9.02602 0.5 
v 5.35478 9.02602 -0.5 
v 5.38707 9.0199 0.5 
v 5.38707 9.0199 -0.5 
v 5.41867 9.01325 0.5 
v 5.41867 9.01325 -0.5 
v 5.4496 9.00608 0.5 
v 5.4496 9.00608 -0.5 
v 5.47986 8.99841 0.5 
v 5.47986 8.99841 -0.5 
v 5.50947 8.99023 0.5 
v 5.50947 8.99023 -0.5 
v 5.53842 8.98156 0.5 
v 5.53842 8.98156 -0.5 
v 5.56673 8.97241 0.5 
v 5.56673 8.97241 -0.5 
v 5.5944 8.96278 0.5 
v 5.5944 8.96278 -0.5 
v 5.62144 8.95269 0.5 
v 5.62144 8.95269 -0.5 
v 5.64787 8.94214 0.5 
v 5.64787 8.94214 -0.5 
v 5.67369 8.93113 0.5 
v 5.67369 8.93113 -0.5 
v 5.6989 8.91968 0.5 
v 5.6989 8.91968 -0.5 
v 5.72351 8.90778 0.5 
v 5.72351 8.90778 -0.5 
v 5.74754 8.89546 0.5 
v 5.74754 8.89546 -0.5 
v 5.77098 8.8827 0.5 
v 5.77098 8.8827 -0.5 
v 5.79385 8.86952 0.5 
v 5.79385 8.86952 -0.5 
v 5.81615 8.85592 0.5 
v 5.81615 8.85592 -0.5 
v 5.83789 8.84191 0.5 
v 5.83789 8.84191 -0.5 
v 5.85908 8.82748 0.5 
v 5.85908 8.82748 -0.5 
v 5.87971 8.81265 0.5 
v 5.87971 8.81265 -0.5 
v 5.8998 8.7974 0.5 
v 5.8998 8.7974 -0.5 
v 5.91935 8.78176 0.5 
v 5.91935 8.78176 -0.5 
v 5.93837 8.76571 0.5 
v 5.93837 8.76571 -0.5 
v 5.95686 8.74927 0.5 
v 5.95686 8.74927 -0.5 
v 5.97482 8.73242 0.5 
v 5.97482 8.73242 -0.5 
v 5.99226 8.71518 0.5 
v 5.99226 8.71518 -0.5 
v 6.00919 8.69754 0.5 
v 6.00919 8.69754 -0.5 
v 6.0256 8.6795 0.5 
v 6.0256 8.6795 -0.5 
v 6.04149 8.66106 0.5 
v 6.04149 8.66106 -0.5 
v 6.0569 8.64219 0.5 
v 6.0569 8.64219 -0.5 
v 6.07178 8.62296 0.5 
v 6.07178 8.62296 -0.5 
v 6.08615 8.60332 0.5 
v 6.08615 8.60332 -0.5 
v 6.10001 8.58328 0.5 
v 6.10001 8.58328 -0.5 
v 6.11337 8.56283 0.5 
v 6.11337 8.56283 -0.5 
v 6.12621 8.54198 0.5 
v 6.12621 8.54198 -0.5 
v 6.13856 8.52072 0.5 
v 6.13856 8.52072 -0.5 
v 6.15039 8.49904 0.5 
v 6.15039 8.49904 -0.5 
v 6.16171 8.47696 0.5 
v 6.16171 8.47696 -0.5 
v 6.17251 8.45446 0.5 
v 6.17251 8.45446 -0.5 
v 6.1828 8.43154 0.5 
v 6.1828 8.43154 -0.5 
v 6.19257 8.4082 0.5 
v 6.19257 8.4082 -0.5 
v 6.20182 8.38443 0.5 
v 6.20182 8.38443 -0.5 
v 6.21054 8.36024 0.5 
v 6.21054 8.36024 -0.5 
v 6.21872 8.33562 0.5 
v 6.21872 8.33562 -0.5 
v 6.22637 8.31057 0.5 
v 6.22637 8.31057 -0.5 
v 6.23347 8.28508 0.5 
v 6.23347 8.28508 -0.5 
v 6.24002 8.25916 0.5 
v 6.24002 8.25916 -0.5 
v 6.24602 8.2328 0.5 
v 6.24602 8.2328 -0.5 
v 6.25145 8.206 0.5 
v 6.25145 8.206 -0.5 
v 6.25631 8.17876 0.5 
v 6.25631 8.17876 -0.5 
v 6.2606 8.15107 0.5 
v 6.2606 8.15107 -0.5 
v 6.2643 8.12294 0.5 
v 6.2643 8.12294 -0.5 
v 6.2674 8.09437 0.5 
v 6.2674 8.09437 -0.5 
v 6.2699 8.06535 0.5 
v 6.2699 8.06535 -0.5 
v 6.27179 8.03588 0.5 
v 6.27179 8.03588 -0.5 
v 6.27306 8.00597 0.5 
v 6.27306 8.00597 -0.5 
v 6.2737 7.97561 0.5 
v 6.2737 7.97561 -0.5 
v 6.2737 7.94481 0.5 
v 6.2737 7.94481 -0.5 
v 6.27306 7.91357 0.5 
v 6.27306 7.91357 -0.5 
v 6.27195 7.8858 0.5 
v 6.27195 7.8858 -0.5 
v 6.27006 7.85373 0.5 
v 6.27006 7.85373 -0.5 
v 6.2675 7.82123 0.5 
v 6.2675 7.82123 -0.5 
v 6.26425 7.7883 0.5 
v 6.26425 7.7883 -0.5 
v 6.26031 7.75494 0.5 
v 6.26031 7.75494 -0.5 
v 6.25567 7.72117 0.5 
v 6.25567 7.72117 -0.5 
v 6.25032 7.68698 0.5 
v 6.25032 7.68698 -0.5 
v 6.24425 7.65237 0.5 
v 6.24425 7.65237 -0.5 
v 6.23744 7.61737 0.5 
v 6.23744 7.61737 -0.5 
v 6.2299 7.58197 0.5 
v 6.2299 7.58197 -0.5 
v 6.22162 7.54618 0.5 
v 6.22162 7.54618 -0.5 
v 6.21258 7.51 0.5 
v 6.21258 7.51 -0.5 
v 6.20277 7.47346 0.5 
v 6.20277 7.47346 -0.5 
v 6.1922 7.43655 0.5 
v 6.1922 7.43655 -0.5 
v 6.18085 7.39929 0.5 
v 6.18085 7.39929 -0.5 
v 6.16872 7.36168 0.5 
v 6.16872 7.36168 -0.5 
v 6.1558 7.32374 0.5 
v 6.1558 7.32374 -0.5 
v 6.14208 7.28548 0.5 
v 6.14208 7.28548 -0.5 
v 6.12757 7.24691 0.5 
v 6.12757 7.24691 -0.5 
v 6.11224 7.20803 0.5 
v 6.11224 7.20803 -0.5 
v 6.09611 7.16888 0.5 
v 6.09611 7.16888 -0.5 
v 6.07916 7.12944 0.5 
v 6.07916 7.12944 -0.5 
v 6.06138 7.08975 0.5 
v 6.06138 7.08975 -0.5 
v 6.04279 7.04981 0.5 
v 6.04279 7.04981 -0.5 
v 6.02337 7.00964 0.5 
v 6.02337 7.00964 -0.5 
v 6.00313 6.96924 0.5 
v 6.00313 6.96924 -0.5 
v 5.982 6.92856 0.5 
v 5.982 6.92856 -0.5 
v 5.9601 6.88777 0.5 
v 5.9601 6.88777 -0.5 
v 5.93735 6.84681 0.5 
v 5.93735 6.84681 -0.5 
v 5.91378 6.80569 0.5 
v 5.91378 6.80569 -0.5 
v 5.88937 6.76443 0.5 
v 5.88937 6.76443 -0.5 
v 5.86414 6.72303 0.5 
v 5.86414 6.72303 -0.5 
v 5.83807 6.68152 0.5 
v 5.83807 6.68152 -0.5 
v 5.81117 6.63992 0.5 
v 5.81117 6.63992 -0.5 
v 5.78344 6.59823 0.5 
v 5.78344 6.59823 -0.5 
v 5.75489 6.55648 0.5 
v 5.75489 6.55648 -0.5 
v 5.72551 6.51468 0.5 
v 5.72551 6.51468 -0.5 
v 5.69531 6.47284 0.5 
v 5.69531 6.47284 -0.5 
v 5.6643 6.43098 0.5 
v 5.6643 6.43098 -0.5 
v 5.63248 6.38912 0.5 
v 5.63248 6.38912 -0.5 
v 5.59984 6.34728 0.5 
v 5.59984 6.34728 -0.5 
v 5.5664 6.30546 0.5 
v 5.5664 6.30546 -0.5 
v 5.53217 6.26369 0.5 
v 5.53217 6.26369 -0.5 
v 5.49713 6.22197 0.5 
v 5.49713 6.22197 -0.5 
v 5.46131 6.18033 0.5 
v 5.46131 6.18033 -0.5 
v 5.42471 6.13878 0.5 
v 5.42471 6.13878 -0.5 
v 5.38733 6.09733 0.5 
v 5.38733 6.09733 -0.5 
v 5.34918 6.056 0.5 
v 5.34918 6.056 -0.5 
v 5.31026 6.01481 0.5 
v 5.31026 6.01481 -0.5 
v 5.27058 5.97376 0.5 
v 5.27058 5.97376 -0.5 
v 5.23016 5.93287 0.5 
v 5.23016 5.93287 -0.5 
v 5.18899 5.89215 0.5 
v 5.18899 5.89215 -0.5 
v 5.14708 5.85162 0.5 
v 5.14708 5.85162 -0.5 
v 5.10444 5.8113 0.5 
v 5.10444 5.8113 -0.5 
v 5.06107 5.77119 0.5 
v 5.06107 5.77119 -0.5 
v 5.01699 5.7313 0.5 
v 5.01699 5.7313 -0.5 
v 4.9722 5.69165 0.5 
v 4.9722 5.69165 -0.5 
v 4.92671 5.65225 0.5 
v 4.92671 5.65225 -0.5 
v 4.88053 5.61312 0.5 
v 4.88053 5.61312 -0.5 
v 4.83366 5.57426 0.5 
v 4.83366 5.57426 -0.5 
v 4.78611 5.53568 0.5 
v 4.78611 5.53568 -0.5 
v 4.73789 5.4974 0.5 
v 4.73789 5.4974 -0.5 
v 4.68901 5.45942 0.5 
v 4.68901 5.45942 -0.5 
v 4.63946 5.42177 0.5 
v 4.63946 5.42177 -0.5 
v 4.58928 5.38444 0.5 
v 4.58928 5.38444 -0.5 
v 4.53845 5.34744 0.5 
v 4.53845 5.34744 -0.5 
v 4.48698 5.31079 0.5 
v 4.48698 5.31079 -0.5 
v 4.43489 5.2745 0.5 
v 4.43489 5.2745 -0.5 
v 4.38218 5.23857 0.5 
v 4.38218 5.23857 -0.5 
v 4.32886 5.20301 0.5 
v 4.32886 5.20301 -0.5 
v 4.27493 5.16784 0.5 
v 4.27493 5.16784 -0.5 
v 4.22041 5.13306 0.5 
v 4.22041 5.13306 -0.5 
v 4.1653 5.09867 0.5 
v 4.1653 5.09867 -0.5 
v 4.1096 5.06469 0.5 
v 4.1096 5.06469 -0.5 
v 4.05332 5.03112 0.5 
v 4.05332 5.03112 -0.5 
v 4 5 0.5 
v 4 5 -0.5 
v 2 8 0.5 
v 2 7 -0.5 
v 2 7 0.5 
v 2.00405 4.00236 0.5 
v 2.00405 4.00236 -0.5 
v 2 4 -0.5 
v 2.0211 4.01273 0.5 
v 2.0211 4.01273 -0.5 
v 2.0421 4.02635 0.5 
v 2.0421 4.02635 -0.5 
v 2.06538 4.04233 0.5 
v 2.06538 4.04233 -0.5 
v 2.09105 4.06087 0.5 
v 2.09105 4.06087 -0.5 
v 2.11923 4.08214 0.5 
v 2.11923 4.08214 -0.5 
v 2.15004 4.1063 0.5 
v 2.15004 4.1063 -0.5 
v 2.18354 4.13352 0.5 
v 2.18354 4.13352 -0.5 
v 2.21982 4.16393 0.5 
v 2.21982 4.16393 -0.5 
v 2.25891 4.19763 0.5 
v 2.25891 4.19763 -0.5 
v 2.30083 4.23473 0.5 
v 2.30083 4.23473 -0.5 
v 2.34558 4.27527 0.5 
v 2.34558 4.27527 -0.5 
v 2.39312 4.3193 0.5 
v 2.39312 4.3193 -0.5 
v 2.44336 4.36679 0.5 
v 2.44336 4.36679 -0.5 
v 2.49621 4.4177 0.5 
v 2.49621 4.4177 -0.5 
v 2.55152 4.47193 0.5 
v 2.55152 4.47193 -0.5 
v 2.60911 4.52937 0.5 
v 2.60911 4.52937 -0.5 
v 2.66879 4.58985 0.5 
v 2.66879 4.58985 -0.5 
v 2.73034 4.6532 0.5 
v 2.73034 4.6532 -0.5 
v 2.79353 4.71918 0.5 
v 2.79353 4.71918 -0.5 
v 2.85811 4.78758 0.5 
v 2.85811 4.78758 -0.5 
v 2.92381 4.85814 0.5 
v 2.92381 4.85814 -0.5 
v 2.99037 4.93057 0.5 
v 2.99037 4.93057 -0.5 
v 3.05753 5.00463 0.5 
v 3.05753 5.00463 -0.5 
v 3.12502 5.08002 0.5 
v 3.12502 5.08002 -0.5 
v 3.19261 5.15647 0.5 
v 3.19261 5.15647 -0.5 
v 3.26003 5.23371 0.5 
v 3.26003 5.23371 -0.5 
v 3.32708 5.31149 0.5 
v 3.32708 5.31149 -0.5 
v 3.39354 5.38956 0.5 
v 3.39354 5.38956 -0.5 
v 3.45921 5.46768 0.5 
v 3.45921 5.46768 -0.5 
v 3.52393 5.54564 0.5 
v 3.52393 5.54564 -0.5 
v 3.58753 5.62325 0.5 
v 3.58753 5.62325 -0.5 
v 3.64988 5.70031 0.5 
v 3.64988 5.70031 -0.5 
v 3.71085 5.77666 0.5 
v 3.71085 5.77666 -0.5 
v 3.77033 5.85215 0.5 
v 3.77033 5.85215 -0.5 
v 3.82824 5.92664 0.5 
v 3.82824 5.92664 -0.5 
v 3.88451 6.00003 0.5 
v 3.88451 6.00003 -0.5 
v 3.93906 6.0722 0.5 
v 3.93906 6.0722 -0.5 
v 3.99186 6.14307 0.5 
v 3.99186 6.14307 -0.5 
v 4.04285 6.21256 0.5 
v 4.04285 6.21256 -0.5 
v 4.09202 6.2806 0.5 
v 4.09202 6.2806 -0.5 
v 4.13935 6.34714 0.5 
v 4.13935 6.34714 -0.5 
v 4.18482 6.41214 0.5 
v 4.18482 6.41214 -0.5 
v 4.22844 6.47555 0.5 
v 4.22844 6.47555 -0.5 
v 4.27021 6.53736 0.5 
v 4.27021 6.53736 -0.5 
v 4.31014 6.59754 0.5 
v 4.31014 6.59754 -0.5 
v 4.34825 6.65609 0.5 
v 4.34825 6.65609 -0.5 
v 4.38456 6.71299 0.5 
v 4.38456 6.71299 -0.5 
v 4.41909 6.76824 0.5 
v 4.41909 6.76824 -0.5 
v 4.45188 6.82185 0.5 
v 4.45188 6.82185 -0.5 
v 4.48295 6.87382 0.5 
v 4.48295 6.87382 -0.5 
v 4.51234 6.92418 0.5 
v 4.51234 6.92418 -0.5 
v 4.54008 6.97292 0.5 
v 4.54008 6.97292 -0.5 
v 4.56622 7.02008 0.5 
v 4.56622 7.02008 -0.5 
v 4.5908 7.06568 0.5 
v 4.5908 7.06568 -0.5 
v 4.61385 7.10972 0.5 
v 4.61385 7.10972 -0.5 
v 4.63542 7.15226 0.5 
v 4.63542 7.15226 -0.5 
v 4.65556 7.1933 0.5 
v 4.65556 7.1933 -0.5 
v 4.6743 7.23288 0.5 
v 4.6743 7.23288 -0.5 
v 4.69169 7.27104 0.5 
v 4.69169 7.27104 -0.5 
v 4.70777 7.30779 0.5 
v 4.70777 7.30779 -0.5 
v 4.72259 7.34317 0.5 
v 4.72259 7.34317 -0.5 
v 4.73643 7.37783 0.5 
v 4.73643 7.37783 -0.5 
v 4.74884 7.41057 0.5 
v 4.74884 7.41057 -0.5 
v 4.76013 7.44204 0.5 
v 4.76013 7.44204 -0.5 
v 4.77033 7.47228 0.5 
v 4.77033 7.47228 -0.5 
v 4.77948 7.50133 0.5 
v 4.77948 7.50133 -0.5 
v 4.78763 7.52922 0.5 
v 4.78763 7.52922 -0.5 
v 4.79483 7.55599 0.5 
v 4.79483 7.55599 -0.5 
v 4.8011 7.58167 0.5 
v 4.8011 7.58167 -0.5 
v 4.80649 7.60631 0.5 
v 4.80649 7.60631 -0.5 
v 4.81103 7.62992 0.5 
v 4.81103 7.62992 -0.5 
v 4.81477 7.65255 0.5 
v 4.81477 7.65255 -0.5 
v 4.81773 7.67424 0.5 
v 4.81773 7.67424 -0.5 
v 4.81995 7.69502 0.5 
v 4.81995 7.69502 -0.5 
v 4.82147 7.71491 0.5 
v 4.82147 7.71491 -0.5 
v 4.82231 7.73397 0.5 
v 4.82231 7.73397 -0.5 
v 4.82251 7.75221 0.5 
v 4.82251 7.75221 -0.5 
v 4.82208 7.76968 0.5 
v 4.82208 7.76968 -0.5 
v 4.82106 7.7864 0.5 
v 4.82106 7.7864 -0.5 
v 4.81947 7.8024 0.5 
v 4.81947 7.8024 -0.5 
v 4.81729 7.81793 0.5 
v 4.81729 7.81793 -0.5 
v 4.81461 7.83259 0.5 
v 4.81461 7.83259 -0.5 
v 4.81141 7.84663 0.5 
v 4.81141 7.84663 -0.5 
v 4.80771 7.86007 0.5 
v 4.80771 7.86007 -0.5 
v 4.80353 7.87294 0.5 
v 4.80353 7.87294 -0.5 
v 4.79886 7.88527 0.5 
v 4.79886 7.88527 -0.5 
v 4.79372 7.89707 0.5 
v 4.79372 7.89707 -0.5 
v 4.78811 7.90838 0.5 
v 4.78811 7.90838 -0.5 
v 4.78203 7.91922 0.5 
v 4.78203 7.91922 -0.5 
v 4.77547 7.92959 0.5 
v 4.77547 7.92959 -0.5 
v 4.76844 7.93952 0.5 
v 4.76844 7.93952 -0.5 
v 4.76092 7.94904 0.5 
v 4.76092 7.94904 -0.5 
v 4.75415 7.9568 0.5 
v 4.75415 7.9568 -0.5 
v 4.7457 7.96555 0.5 
v 4.7457 7.96555 -0.5 
v 4.73674 7.9739 0.5 
v 4.73674 7.9739 -0.5 
v 4.72723 7.98187 0.5 
v 4.72723 7.98187 -0.5 
v 4.71716 7.98945 0.5 
v 4.71716 7.98945 -0.5 
v 4.70651 7.99664 0.5 
v 4.70651 7.99664 -0.5 
v 4.69525 8.00345 0.5 
v 4.69525 8.00345 -0.5 
v 4.68335 8.00986 0.5 
v 4.68335 8.00986 -0.5 
v 4.67079 8.01587 0.5 
v 4.67079 8.01587 -0.5 
v 4.65753 8.02147 0.5 
v 4.65753 8.02147 -0.5 
v 4.64354 8.02665 0.5 
v 4.64354 8.02665 -0.5 
v 4.62879 8.0314 0.5 
v 4.62879 8.0314 -0.5 
v 4.61325 8.03569 0.5 
v 4.61325 8.03569 -0.5 
v 4.59701 8.03947 0.5 
v 4.59701 8.03947 -0.5 
v 4.57977 8.0428 0.5 
v 4.57977 8.0428 -0.5 
v 4.56161 8.04562 0.5 
v 4.56161 8.04562 -0.5 
v 4.5425 8.04789 0.5 
v 4.5425 8.04789 -0.5 
v 4.52239 8.0496 0.5 
v 4.52239 8.0496 -0.5 
v 4.50125 8.05071 0.5 
v 4.50125 8.05071 -0.5 
v 4.47904 8.05119 0.5 
v 4.47904 8.05119 -0.5 
v 4.4557 8.05102 0.5 
v 4.4557 8.05102 -0.5 
v 4.43119 8.05015 0.5 
v 4.43119 8.05015 -0.5 
v 4.40547 8.04856 0.5 
v 4.40547 8.04856 -0.5 
v 4.37849 8.04621 0.5 
v 4.37849 8.04621 -0.5 
v 4.3502 8.04306 0.5 
v 4.3502 8.04306 -0.5 
v 4.32055 8.03907 0.5 
v 4.32055 8.03907 -0.5 
v 4.2895 8.0342 0.5 
v 4.2895 8.0342 -0.5 
v 4.257 8.02841 0.5 
v 4.257 8.02841 -0.5 
v 4.22298 8.02167 0.5 
v 4.22298 8.02167 -0.5 
v 4.18741 8.01392 0.5 
v 4.18741 8.01392 -0.5 
v 4.15023 8.00512 0.5 
v 4.15023 8.00512 -0.5 
v 4.11139 7.99523 0.5 
v 4.11139 7.99523 -0.5 
v 4.07083 7.9842 0.5 
v 4.07083 7.9842 -0.5 
v 4.0285 7.97199 0.5 
v 4.0285 7.97199 -0.5 
v 3.98435 7.95854 0.5 
v 3.98435 7.95854 -0.5 
v 3.93831 7.94381 0.5 
v 3.93831 7.94381 -0.5 
v 3.89034 7.92774 0.5 
v 3.89034 7.92774 -0.5 
v 3.84037 7.9103 0.5 
v 3.84037 7.9103 -0.5 
v 3.78834 7.89141 0.5 
v 3.78834 7.89141 -0.5 
v 3.73421 7.87104 0.5 
v 3.73421 7.87104 -0.5 
v 3.6779 7.84914 0.5 
v 3.6779 7.84914 -0.5 
v 3.61936 7.82563 0.5 
v 3.61936 7.82563 -0.5 
v 3.55854 7.80048 0.5 
v 3.55854 7.80048 -0.5 
v 3.49536 7.77363 0.5 
v 3.49536 7.77363 -0.5 
v 3.42976 7.74501 0.5 
v 3.42976 7.74501 -0.5 
v 3.36169 7.71458 0.5 
v 3.36169 7.71458 -0.5 
v 3.29108 7.68228 0.5 
v 3.29108 7.68228 -0.5 
v 3.21787 7.64804 0.5 
v 3.21787 7.64804 -0.5 
v 3.142 7.61182 0.5 
v 3.142 7.61182 -0.5 
v 3.06339 7.57354 0.5 
v 3.06339 7.57354 -0.5 
v 2.98198 7.53316 0.5 
v 2.98198 7.53316 -0.5 
v 2.89771 7.4906 0.5 
v 2.89771 7.4906 -0.5 
v 2.81052 7.44582 0.5 
v 2.81052 7.44582 -0.5 
v 2.72033 7.39874 0.5 
v 2.72033 7.39874 -0.5 
v 2.62707 7.3493 0.5 
v 2.62707 7.3493 -0.5 
v 2.53069 7.29745 0.5 
v 2.53069 7.29745 -0.5 
v 2.43111 7.24311 0.5 
v 2.43111 7.24311 -0.5 
v 2.32826 7.18623 0.5 
v 2.32826 7.18623 -0.5 
v 2.22207 7.12674 0.5 
v 2.22207 7.12674 -0.5 
v 2.11248 7.06457 0.5 
v 2.11248 7.06457 -0.5 
v 2 4 0.5 
v 6 4 0.5 
v 6 5 0.5 
v 6 4 -0.5 
v 6 5 -0.5 
vn -0.494141 0.869382 0 
vn -0.5 0.866025 0 
vn -0.488161 0.872754 0 
vn -0.482062 0.876137 0 
vn -0.47584 0.879532 0 
vn -0.469492 0.882937 0 
vn -0.463015 0.88635 0 
vn -0.456406 0.889771 0 
vn -0.449662 0.893199 0 
vn -0.442778 0.896632 0 
vn -0.43575 0.900068 0 
vn -0.428577 0.903505 0 
vn -0.421252 0.906944 0 
vn -0.413773 0.91038 0 
vn -0.406136 0.913813 0 
vn -0.398335 0.91724 0 
vn -0.390368 0.920659 0 
vn -0.382229 0.924068 0 
vn -0.373915 0.927463 0 
vn -0.36542 0.930843 0 
vn -0.35674 0.934204 0 
vn -0.347871 0.937542 0 
vn -0.338807 0.940856 0 
vn -0.329543 0.94414 0 
vn -0.320076 0.947392 0 
vn -0.310398 0.950607 0 
vn -0.300507 0.95378 0 
vn -0.290395 0.956907 0 
vn -0.280058 0.959983 0 
vn -0.269491 0.963003 0 
vn -0.258688 0.965961 0 
vn -0.247644 0.968851 0 
vn -0.236354 0.971667 0 
vn -0.224812 0.974402 0 
vn -0.213012 0.97705 0 
vn -0.20095 0.979601 0 
vn -0.188621 0.98205 0 
vn -0.176018 0.984387 0 
vn -0.163137 0.986603 0 
vn -0.149974 0.98869 0 
vn -0.136522 0.990637 0 
vn -0.122779 0.992434 0 
vn -0.108739 0.99407 0 
vn -0.0943984 0.995534 0 
vn -0.0797537 0.996815 0 
vn -0.0648015 0.997898 0 
vn -0.0495388 0.998772 0 
vn -0.0339633 0.999423 0 
vn -0.0187656 0.999824 0 
vn -0.00257357 0.999997 0 
vn 0.0139357 0.999903 0 
vn 0.0307616 0.999527 0 
vn 0.0479033 0.998852 0 
vn 0.065359 0.997862 0 
vn 0.0831263 0.996539 0 
vn 0.101201 0.994866 0 
vn 0.11958 0.992825 0 
vn 0.138255 0.990397 0 
vn 0.157221 0.987563 0 
vn 0.176468 0.984306 0 
vn 0.195988 0.980606 0 
vn 0.215768 0.976445 0 
vn 0.235796 0.971803 0 
vn 0.256058 0.966661 0 
vn 0.276538 0.961003 0 
vn 0.297218 0.95481 0 
vn 0.31808 0.948064 0 
vn 0.339102 0.94075 0 
vn 0.360261 0.932851 0 
vn 0.381534 0.924355 0 
vn 0.402895 0.915246 0 
vn 0.424316 0.905514 0 
vn 0.445769 0.895148 0 
vn 0.467222 0.88414 0 
vn 0.488645 0.872483 0 
vn 0.510004 0.860172 0 
vn 0.531266 0.847205 0 
vn 0.552396 0.833582 0 
vn 0.573358 0.819305 0 
vn 0.594118 0.804378 0 
vn 0.614638 0.788809 0 
vn 0.634883 0.772608 0 
vn 0.654818 0.755787 0 
vn 0.674406 0.738361 0 
vn 0.693614 0.720347 0 
vn 0.712408 0.701766 0 
vn 0.730755 0.68264 0 
vn 0.748626 0.662993 0 
vn 0.76599 0.642853 0 
vn 0.782844 0.622217 0 
vn 0.799116 0.601177 0 
vn 0.814805 0.579734 0 
vn 0.829893 0.557922 0 
vn 0.84436 0.535776 0 
vn 0.858192 0.513329 0 
vn 0.871375 0.490618 0 
vn 0.883898 0.46768 0 
vn 0.895755 0.444549 0 
vn 0.906939 0.421262 0 
vn 0.917448 0.397855 0 
vn 0.927283 0.374362 0 
vn 0.936444 0.350817 0 
vn 0.944936 0.327254 0 
vn 0.952766 0.303705 0 
vn 0.959942 0.280199 0 
vn 0.966474 0.256766 0 
vn 0.972373 0.233434 0 
vn 0.977652 0.210229 0 
vn 0.982327 0.187175 0 
vn 0.986411 0.164295 0 
vn 0.989922 0.14161 0 
vn 0.992878 0.119139 0 
vn 0.995294 0.0968997 0 
vn 0.99719 0.0749075 0 
vn 0.998585 0.0531769 0 
vn 0.999497 0.0317203 0 
vn 0.999944 0.0105488 0 
vn 0.999947 -0.0103281 0 
vn 0.999522 -0.0309024 0 
vn 0.998814 -0.0486989 0 
vn 0.997638 -0.0686941 0 
vn 0.996088 -0.0883642 0 
vn 0.994182 -0.107712 0 
vn 0.991936 -0.126736 0 
vn 0.989368 -0.145434 0 
vn 0.986493 -0.163805 0 
vn 0.983326 -0.18185 0 
vn 0.979884 -0.19957 0 
vn 0.976179 -0.216967 0 
vn 0.972226 -0.234043 0 
vn 0.968039 -0.250801 0 
vn 0.963629 -0.267244 0 
vn 0.959009 -0.283377 0 
vn 0.95419 -0.299203 0 
vn 0.949182 -0.314726 0 
vn 0.943997 -0.329953 0 
vn 0.938644 -0.344886 0 
vn 0.933132 -0.359533 0 
vn 0.92747 -0.373897 0 
vn 0.921666 -0.387984 0 
vn 0.915727 -0.4018 0 
vn 0.909662 -0.41535 0 
vn 0.903476 -0.428639 0 
vn 0.897176 -0.441673 0 
vn 0.890768 -0.454458 0 
vn 0.884244 -0.467024 0 
vn 0.877637 -0.479325 0 
vn 0.870938 -0.491392 0 
vn 0.864152 -0.503231 0 
vn 0.857283 -0.514846 0 
vn 0.850334 -0.526243 0 
vn 0.84331 -0.537427 0 
vn 0.836215 -0.548402 0 
vn 0.829051 -0.559172 0 
vn 0.821822 -0.569744 0 
vn 0.814531 -0.58012 0 
vn 0.80718 -0.590306 0 
vn 0.799771 -0.600305 0 
vn 0.792308 -0.610121 0 
vn 0.784792 -0.619759 0 
vn 0.777226 -0.629222 0 
vn 0.769611 -0.638513 0 
vn 0.761949 -0.647637 0 
vn 0.754242 -0.656596 0 
vn 0.746492 -0.665394 0 
vn 0.7387 -0.674035 0 
vn 0.730867 -0.68252 0 
vn 0.722995 -0.690853 0 
vn 0.715086 -0.699037 0 
vn 0.70714 -0.707074 0 
vn 0.699158 -0.714967 0 
vn 0.691142 -0.722719 0 
vn 0.683093 -0.730331 0 
vn 0.675012 -0.737807 0 
vn 0.6669 -0.745147 0 
vn 0.658757 -0.752356 0 
vn 0.650586 -0.759433 0 
vn 0.642386 -0.766382 0 
vn 0.634158 -0.773203 0 
vn 0.625904 -0.7799 0 
vn 0.617624 -0.786473 0 
vn 0.60932 -0.792924 0 
vn 0.600991 -0.799255 0 
vn 0.59264 -0.805468 0 
vn 0.584266 -0.811563 0 
vn 0.57587 -0.817541 0 
vn 0.567454 -0.823405 0 
vn 0.559017 -0.829156 0 
vn 0.550562 -0.834794 0 
vn 0.542088 -0.840322 0 
vn 0.533597 -0.845739 0 
vn 0.525089 -0.851048 0 
vn 0.516565 -0.856248 0 
vn 0.508026 -0.861342 0 
vn 0.5 -0.866025 0 
vn -0.5 0.866025 0 
vn -1 0 0 
vn -0.506807 0.862059 0 
vn -0.5 0.866025 0 
vn -0.531493 0.847063 0 
vn -0.55534 0.831623 0 
vn -0.576022 0.817434 0 
vn -0.594085 0.804402 0 
vn -0.609969 0.792425 0 
vn -0.624029 0.781401 0 
vn -0.636557 0.77123 0 
vn -0.64779 0.761819 0 
vn -0.657926 0.753083 0 
vn -0.667128 0.744944 0 
vn -0.675531 0.737332 0 
vn -0.683251 0.730184 0 
vn -0.690384 0.723443 0 
vn -0.697012 0.71706 0 
vn -0.703204 0.710988 0 
vn -0.709021 0.705188 0 
vn -0.714515 0.69962 0 
vn -0.719732 0.694252 0 
vn -0.724713 0.689051 0 
vn -0.72949 0.683991 0 
vn -0.734097 0.679045 0 
vn -0.738558 0.67419 0 
vn -0.742899 0.669404 0 
vn -0.74714 0.664667 0 
vn -0.751301 0.65996 0 
vn -0.755398 0.655266 0 
vn -0.759448 0.650568 0 
vn -0.763463 0.645851 0 
vn -0.767457 0.6411 0 
vn -0.771441 0.636301 0 
vn -0.775425 0.631439 0 
vn -0.77942 0.626502 0 
vn -0.783434 0.621475 0 
vn -0.787475 0.616346 0 
vn -0.791552 0.611101 0 
vn -0.795672 0.605728 0 
vn -0.799841 0.600213 0 
vn -0.804065 0.594541 0 
vn -0.808352 0.5887 0 
vn -0.812706 0.582674 0 
vn -0.817133 0.576449 0 
vn -0.821638 0.57001 0 
vn -0.826226 0.563339 0 
vn -0.830901 0.55642 0 
vn -0.835667 0.549236 0 
vn -0.840529 0.541767 0 
vn -0.845489 0.533993 0 
vn -0.85055 0.525894 0 
vn -0.855715 0.517448 0 
vn -0.860985 0.50863 0 
vn -0.866362 0.499416 0 
vn -0.871846 0.48978 0 
vn -0.877436 0.479693 0 
vn -0.883132 0.469125 0 
vn -0.888929 0.458045 0 
vn -0.894825 0.446418 0 
vn -0.900812 0.434209 0 
vn -0.906885 0.421378 0 
vn -0.913032 0.407887 0 
vn -0.919243 0.393692 0 
vn -0.925499 0.37875 0 
vn -0.9319 0.362716 0 
vn -0.938193 0.346111 0 
vn -0.944467 0.328606 0 
vn -0.95069 0.310144 0 
vn -0.956823 0.29067 0 
vn -0.962825 0.270125 0 
vn -0.968645 0.24845 0 
vn -0.974224 0.225584 0 
vn -0.979495 0.201468 0 
vn -0.984383 0.176042 0 
vn -0.988799 0.14925 0 
vn -0.992648 0.12104 0 
vn -0.995817 0.0913665 0 
vn -0.998187 0.0601898 0 
vn -0.999622 0.0274825 0 
vn -0.999977 -0.00676951 0 
vn -0.999094 -0.0425641 0 
vn -0.996805 -0.079879 0 
vn -0.992935 -0.118663 0 
vn -0.987211 -0.159417 0 
vn -0.979607 -0.200922 0 
vn -0.969879 -0.243587 0 
vn -0.957859 -0.28724 0 
vn -0.943395 -0.331672 0 
vn -0.926359 -0.376641 0 
vn -0.906656 -0.421871 0 
vn -0.884227 -0.467057 0 
vn -0.85906 -0.511875 0 
vn -0.831192 -0.555985 0 
vn -0.800715 -0.599046 0 
vn -0.767761 -0.640736 0 
vn -0.737957 -0.674848 0 
vn -0.701007 -0.713154 0 
vn -0.66227 -0.749265 0 
vn -0.622056 -0.782973 0 
vn -0.580692 -0.814123 0 
vn -0.538518 -0.842614 0 
vn -0.49587 -0.868397 0 
vn -0.453073 -0.891473 0 
vn -0.41043 -0.911892 0 
vn -0.368218 -0.92974 0 
vn -0.32668 -0.945135 0 
vn -0.286027 -0.958222 0 
vn -0.246432 -0.96916 0 
vn -0.208374 -0.978049 0 
vn -0.171265 -0.985225 0 
vn -0.135534 -0.990773 0 
vn -0.101229 -0.994863 0 
vn -0.0683757 -0.99766 0 
vn -0.0369807 -0.999316 0 
vn -0.00703273 -0.999975 0 
vn 0.0214921 -0.999769 0 
vn 0.0486284 -0.998817 0 
vn 0.0744185 -0.997227 0 
vn 0.0989107 -0.995096 0 
vn 0.122157 -0.992511 0 
vn 0.144212 -0.989547 0 
vn 0.165132 -0.986271 0 
vn 0.184973 -0.982744 0 
vn 0.203791 -0.979014 0 
vn 0.221639 -0.975129 0 
vn 0.238571 -0.971125 0 
vn 0.254639 -0.967036 0 
vn 0.26989 -0.962891 0 
vn 0.284372 -0.958714 0 
vn 0.298129 -0.954526 0 
vn 0.311203 -0.950343 0 
vn 0.323635 -0.946182 0 
vn 0.335461 -0.942054 0 
vn 0.346718 -0.937969 0 
vn 0.357438 -0.933937 0 
vn 0.367652 -0.929963 0 
vn 0.37739 -0.926054 0 
vn 0.38668 -0.922214 0 
vn 0.395547 -0.918446 0 
vn 0.404015 -0.914752 0 
vn 0.412108 -0.911135 0 
vn 0.419845 -0.907596 0 
vn 0.427247 -0.904135 0 
vn 0.434332 -0.900753 0 
vn 0.441118 -0.897449 0 
vn 0.447622 -0.894223 0 
vn 0.453857 -0.891074 0 
vn 0.45984 -0.888002 0 
vn 0.465582 -0.885005 0 
vn 0.471097 -0.882081 0 
vn 0.476396 -0.879231 0 
vn 0.481491 -0.876451 0 
vn 0.486391 -0.873741 0 
vn 0.491107 -0.871099 0 
vn 0.495648 -0.868523 0 
vn 0.5 -0.866025 0 
vn -0.5 0.866025 0 
vn 0 0 1 
vn 0 0 -1 
vn 0 -1 0 
vn 1 0 0 
vn 0 1 0 
usemtl 0.231373_0.380392_0.705882_0.000000_0.000000
o mesh22
f 37//21 38//21 39//22 
f 40//23 41//23 38//21 
f 42//24 43//24 41//23 
f 44//25 45//25 43//24 
f 46//26 47//26 45//25 
f 48//27 49//27 47//26 
f 50//28 51//28 49//27 
f 52//29 53//29 51//28 
f 54//30 55//30 53//29 
f 56//31 57//31 55//30 
f 58//32 59//32 57//31 
f 60//33 61//33 59//32 
f 62//34 63//34 61//33 
f 64//35 65//35 63//34 
f 66//36 67//36 65//35 
f 68//37 69//37 67//36 
f 70//38 71//38 69//37 
f 72//39 73//39 71//38 
f 74//40 75//40 73//39 
f 76//41 77//41 75//40 
f 78//42 79//42 77//41 
f 80//43 81//43 79//42 
f 82//44 83//44 81//43 
f 84//45 85//45 83//44 
f 86//46 87//46 85//45 
f 88//47 89//47 87//46 
f 90//48 91//48 89//47 
f 92//49 93//49 91//48 
f 94//50 95//50 93//49 
f 96//51 97//51 95//50 
f 98//52 99//52 97//51 
f 100//53 101//53 99//52 
f 102//54 103//54 101//53 
f 104//55 105//55 103//54 
f 106//56 107//56 105//55 
f 108//57 109//57 107//56 
f 110//58 111//58 109//57 
f 112//59 113//59 111//58 
f 114//60 115//60 113//59 
f 116//61 117//61 115//60 
f 118//62 119//62 117//61 
f 120//63 121//63 119//62 
f 122//64 123//64 121//63 
f 124//65 125//65 123//64 
f 126//66 127//66 125//65 
f 128//67 129//67 127//66 
f 130//68 131//68 129//67 
f 132//69 133//69 131//68 
f 134//70 135//70 133//69 
f 136//71 137//71 135//70 
f 138//72 139//72 137//71 
f 140//73 141//73 139//72 
f 142//74 143//74 141//73 
f 144//75 145//75 143//74 
f 146//76 147//76 145//75 
f 148//77 149//77 147//76 
f 150//78 151//78 149//77 
f 152//79 153//79 151//78 
f 154//80 155//80 153//79 
f 156//81 157//81 155//80 
f 158//82 159//82 157//81 
f 160//83 161//83 159//82 
f 162//84 163//84 161//83 
f 164//85 165//85 163//84 
f 166//86 167//86 165//85 
f 168//87 169//87 167//86 
f 170//88 171//88 169//87 
f 172//89 173//89 171//88 
f 174//90 175//90 173//89 
f 176//91 177//91 175//90 
f 178//92 179//92 177//91 
f 180//93 181//93 179//92 
f 182//94 183//94 181//93 
f 184//95 185//95 183//94 
f 186//96 187//96 185//95 
f 188//97 189//97 187//96 
f 190//98 191//98 189//97 
f 192//99 193//99 191//98 
f 194//100 195//100 193//99 
f 196//101 197//101 195//100 
f 198//102 199//102 197//101 
f 200//103 201//103 199//102 
f 202//104 203//104 201//103 
f 204//105 205//105 203//104 
f 206//106 207//106 205//105 
f 208//107 209//107 207//106 
f 210//108 211//108 209//107 
f 212//109 213//109 211//108 
f 214//110 215//110 213//109 
f 216//111 217//111 215//110 
f 218//112 219//112 217//111 
f 220//113 221//113 219//112 
f 222//114 223//114 221//113 
f 224//115 225//115 223//114 
f 226//116 227//116 225//115 
f 228//117 229//117 227//116 
f 230//118 231//118 229//117 
f 232//119 233//119 231//118 
f 234//120 235//120 233//119 
f 236//121 237//121 235//120 
f 238//122 239//122 237//121 
f 240//123 241//123 239//122 
f 242//124 243//124 241//123 
f 244//125 245//125 243//124 
f 246//126 247//126 245//125 
f 248//127 249//127 247//126 
f 250//128 251//128 249//127 
f 252//129 253//129 251//128 
f 254//130 255//130 253//129 
f 256//131 257//131 255//130 
f 258//132 259//132 257//131 
f 260//133 261//133 259//132 
f 262//134 263//134 261//133 
f 264//135 265//135 263//134 
f 266//136 267//136 265//135 
f 268//137 269//137 267//136 
f 270//138 271//138 269//137 
f 272//139 273//139 271//138 
f 274//140 275//140 273//139 
f 276//141 277//141 275//140 
f 278//142 279//142 277//141 
f 280//143 281//143 279//142 
f 282//144 283//144 281//143 
f 284//145 285//145 283//144 
f 286//146 287//146 285//145 
f 288//147 289//147 287//146 
f 290//148 291//148 289//147 
f 292//149 293//149 291//148 
f 294//150 295//150 293//149 
f 296//151 297//151 295//150 
f 298//152 299//152 297//151 
f 300//153 301//153 299//152 
f 302//154 303//154 301//153 
f 304//155 305//155 303//154 
f 306//156 307//156 305//155 
f 308//157 309//157 307//156 
f 310//158 311//158 309//157 
f 312//159 313//159 311//158 
f 314//160 315//160 313//159 
f 316//161 317//161 315//160 
f 318//162 319//162 317//161 
f 320//163 321//163 319//162 
f 322//164 323//164 321//163 
f 324//165 325//165 323//164 
f 326//166 327//166 325//165 
f 328//167 329//167 327//166 
f 330//168 331//168 329//167 
f 332//169 333//169 331//168 
f 334//170 335//170 333//169 
f 336//171 337//171 335//170 
f 338//172 339//172 337//171 
f 340//173 341//173 339//172 
f 342//174 343//174 341//173 
f 344//175 345//175 343//174 
f 346//176 347//176 345//175 
f 348//177 349//177 347//176 
f 350//178 351//178 349//177 
f 352//179 353//179 351//178 
f 354//180 355//180 353//179 
f 356//181 357//181 355//180 
f 358//182 359//182 357//181 
f 360//183 361//183 359//182 
f 362//184 363//184 361//183 
f 364//185 365//185 363//184 
f 366//186 367//186 365//185 
f 368//187 369//187 367//186 
f 370//188 371//188 369//187 
f 372//189 373//189 371//188 
f 374//190 375//190 373//189 
f 376//191 377//191 375//190 
f 378//192 379//192 377//191 
f 380//193 381//193 379//192 
f 382//194 383//194 381//193 
f 384//195 385//195 383//194 
f 386//196 387//196 385//195 
f 388//197 389//197 387//196 
f 390//198 391//198 389//197 
f 392//199 393//199 391//198 
f 394//200 395//200 393//199 
f 396//201 397//201 395//200 
f 398//202 399//202 397//201 
f 400//203 401//203 399//202 
f 402//204 403//204 401//203 
f 404//205 405//205 403//204 
f 406//206 407//206 405//205 
f 408//207 409//207 407//206 
f 410//208 411//208 409//207 
f 412//209 413//209 411//208 
f 414//210 415//210 413//209 
f 416//211 417//211 415//210 
f 418//212 419//212 417//211 
f 420//213 421//213 419//212 
f 422//214 423//214 421//213 
f 424//215 425//215 423//214 
f 423//214 422//214 424//215 
f 421//213 420//213 422//214 
f 419//212 418//212 420//213 
f 417//211 416//211 418//212 
f 415//210 414//210 416//211 
f 413//209 412//209 414//210 
f 411//208 410//208 412//209 
f 409//207 408//207 410//208 
f 407//206 406//206 408//207 
f 405//205 404//205 406//206 
f 403//204 402//204 404//205 
f 401//203 400//203 402//204 
f 399//202 398//202 400//203 
f 397//201 396//201 398//202 
f 395//200 394//200 396//201 
f 393//199 392//199 394//200 
f 391//198 390//198 392//199 
f 389//197 388//197 390//198 
f 387//196 386//196 388//197 
f 385//195 384//195 386//196 
f 383//194 382//194 384//195 
f 381//193 380//193 382//194 
f 379//192 378//192 380//193 
f 377//191 376//191 378//192 
f 375//190 374//190 376//191 
f 373//189 372//189 374//190 
f 371//188 370//188 372//189 
f 369//187 368//187 370//188 
f 367//186 366//186 368//187 
f 365//185 364//185 366//186 
f 363//184 362//184 364//185 
f 361//183 360//183 362//184 
f 359//182 358//182 360//183 
f 357//181 356//181 358//182 
f 355//180 354//180 356//181 
f 353//179 352//179 354//180 
f 351//178 350//178 352//179 
f 349//177 348//177 350//178 
f 347//176 346//176 348//177 
f 345//175 344//175 346//176 
f 343//174 342//174 344//175 
f 341//173 340//173 342//174 
f 339//172 338//172 340//173 
f 337//171 336//171 338//172 
f 335//170 334//170 336//171 
f 333//169 332//169 334//170 
f 331//168 330//168 332//169 
f 329//167 328//167 330//168 
f 327//166 326//166 328//167 
f 325//165 324//165 326//166 
f 323//164 322//164 324//165 
f 321//163 320//163 322//164 
f 319//162 318//162 320//163 
f 317//161 316//161 318//162 
f 315//160 314//160 316//161 
f 313//159 312//159 314//160 
f 311//158 310//158 312//159 
f 309//157 308//157 310//158 
f 307//156 306//156 308//157 
f 305//155 304//155 306//156 
f 303//154 302//154 304//155 
f 301//153 300//153 302//154 
f 299//152 298//152 300//153 
f 297//151 296//151 298//152 
f 295//150 294//150 296//151 
f 293//149 292//149 294//150 
f 291//148 290//148 292//149 
f 289//147 288//147 290//148 
f 287//146 286//146 288//147 
f 285//145 284//145 286//146 
f 283//144 282//144 284//145 
f 281//143 280//143 282//144 
f 279//142 278//142 280//143 
f 277//141 276//141 278//142 
f 275//140 274//140 276//141 
f 273//139 272//139 274//140 
f 271//138 270//138 272//139 
f 269//137 268//137 270//138 
f 267//136 266//136 268//137 
f 265//135 264//135 266//136 
f 263//134 262//134 264//135 
f 261//133 260//133 262//134 
f 259//132 258//132 260//133 
f 257//131 256//131 258//132 
f 255//130 254//130 256//131 
f 253//129 252//129 254//130 
f 251//128 250//128 252//129 
f 249//127 248//127 250//128 
f 247//126 246//126 248//127 
f 245//125 244//125 246//126 
f 243//124 242//124 244//125 
f 241//123 240//123 242//124 
f 239//122 238//122 240//123 
f 237//121 236//121 238//122 
f 235//120 234//120 236//121 
f 233//119 232//119 234//120 
f 231//118 230//118 232//119 
f 229//117 228//117 230//118 
f 227//116 226//116 228//117 
f 225//115 224//115 226//116 
f 223//114 222//114 224//115 
f 221//113 220//113 222//114 
f 219//112 218//112 220//113 
f 217//111 216//111 218//112 
f 215//110 214//110 216//111 
f 213//109 212//109 214//110 
f 211//108 210//108 212//109 
f 209//107 208//107 210//108 
f 207//106 206//106 208//107 
f 205//105 204//105 206//106 
f 203//104 202//104 204//105 
f 201//103 200//103 202//104 
f 199//102 198//102 200//103 
f 197//101 196//101 198//102 
f 195//100 194//100 196//101 
f 193//99 192//99 194//100 
f 191//98 190//98 192//99 
f 189//97 188//97 190//98 
f 187//96 186//96 188//97 
f 185//95 184//95 186//96 
f 183//94 182//94 184//95 
f 181//93 180//93 182//94 
f 179//92 178//92 180//93 
f 177//91 176//91 178//92 
f 175//90 174//90 176//91 
f 173//89 172//89 174//90 
f 171//88 170//88 172//89 
f 169//87 168//87 170//88 
f 167//86 166//86 168//87 
f 165//85 164//85 166//86 
f 163//84 162//84 164//85 
f 161//83 160//83 162//84 
f 159//82 158//82 160//83 
f 157//81 156//81 158//82 
f 155//80 154//80 156//81 
f 153//79 152//79 154//80 
f 151//78 150//78 152//79 
f 149//77 148//77 150//78 
f 147//76 146//76 148//77 
f 145//75 144//75 146//76 
f 143//74 142//74 144//75 
f 141//73 140//73 142//74 
f 139//72 138//72 140//73 
f 137//71 136//71 138//72 
f 135//70 134//70 136//71 
f 133//69 132//69 134//70 
f 131//68 130//68 132//69 
f 129//67 128//67 130//68 
f 127//66 126//66 128//67 
f 125//65 124//65 126//66 
f 123//64 122//64 124//65 
f 121//63 120//63 122//64 
f 119//62 118//62 120//63 
f 117//61 116//61 118//62 
f 115//60 114//60 116//61 
f 113//59 112//59 114//60 
f 111//58 110//58 112//59 
f 109//57 108//57 110//58 
f 107//56 106//56 108//57 
f 105//55 104//55 106//56 
f 103//54 102//54 104//55 
f 101//53 100//53 102//54 
f 99//52 98//52 100//53 
f 97//51 96//51 98//52 
f 95//50 94//50 96//51 
f 93//49 92//49 94//50 
f 91//48 90//48 92//49 
f 89//47 88//47 90//48 
f 87//46 86//46 88//47 
f 85//45 84//45 86//46 
f 83//44 82//44 84//45 
f 81//43 80//43 82//44 
f 79//42 78//42 80//43 
f 77//41 76//41 78//42 
f 75//40 74//40 76//41 
f 73//39 72//39 74//40 
f 71//38 70//38 72//39 
f 69//37 68//37 70//38 
f 67//36 66//36 68//37 
f 65//35 64//35 66//36 
f 63//34 62//34 64//35 
f 61//33 60//33 62//34 
f 59//32 58//32 60//33 
f 57//31 56//31 58//32 
f 55//30 54//30 56//31 
f 53//29 52//29 54//30 
f 51//28 50//28 52//29 
f 49//27 48//27 50//28 
f 47//26 46//26 48//27 
f 45//25 44//25 46//26 
f 43//24 42//24 44//25 
f 41//23 40//23 42//24 
f 38//21 37//21 40//23 
f 39//22 426//216 37//21 
o mesh23
f 426//217 39//217 427//217 
f 427//217 428//217 426//217 
o mesh24
f 429//218 430//218 431//219 
f 432//220 433//220 430//218 
f 434//221 435//221 433//220 
f 436//222 437//222 435//221 
f 438//223 439//223 437//222 
f 440//224 441//224 439//223 
f 442//225 443//225 441//224 
f 444//226 445//226 443//225 
f 446//227 447//227 445//226 
f 448//228 449//228 447//227 
f 450//229 451//229 449//228 
f 452//230 453//230 451//229 
f 454//231 455//231 453//230 
f 456//232 457//232 455//231 
f 458//233 459//233 457//232 
f 460//234 461//234 459//233 
f 462//235 463//235 461//234 
f 464//236 465//236 463//235 
f 466//237 467//237 465//236 
f 468//238 469//238 467//237 
f 470//239 471//239 469//238 
f 472//240 473//240 471//239 
f 474//241 475//241 473//240 
f 476//242 477//242 475//241 
f 478//243 479//243 477//242 
f 480//244 481//244 479//243 
f 482//245 483//245 481//244 
f 484//246 485//246 483//245 
f 486//247 487//247 485//246 
f 488//248 489//248 487//247 
f 490//249 491//249 489//248 
f 492//250 493//250 491//249 
f 494//251 495//251 493//250 
f 496//252 497//252 495//251 
f 498//253 499//253 497//252 
f 500//254 501//254 499//253 
f 502//255 503//255 501//254 
f 504//256 505//256 503//255 
f 506//257 507//257 505//256 
f 508//258 509//258 507//257 
f 510//259 511//259 509//258 
f 512//260 513//260 511//259 
f 514//261 515//261 513//260 
f 516//262 517//262 515//261 
f 518//263 519//263 517//262 
f 520//264 521//264 519//263 
f 522//265 523//265 521//264 
f 524//266 525//266 523//265 
f 526//267 527//267 525//266 
f 528//268 529//268 527//267 
f 530//269 531//269 529//268 
f 532//270 533//270 531//269 
f 534//271 535//271 533//270 
f 536//272 537//272 535//271 
f 538//273 539//273 537//272 
f 540//274 541//274 539//273 
f 542//275 543//275 541//274 
f 544//276 545//276 543//275 
f 546//277 547//277 545//276 
f 548//278 549//278 547//277 
f 550//279 551//279 549//278 
f 552//280 553//280 551//279 
f 554//281 555//281 553//280 
f 556//282 557//282 555//281 
f 558//283 559//283 557//282 
f 560//284 561//284 559//283 
f 562//285 563//285 561//284 
f 564//286 565//286 563//285 
f 566//287 567//287 565//286 
f 568//288 569//288 567//287 
f 570//289 571//289 569//288 
f 572//290 573//290 571//289 
f 574//291 575//291 573//290 
f 576//292 577//292 575//291 
f 578//293 579//293 577//292 
f 580//294 581//294 579//293 
f 582//295 583//295 581//294 
f 584//296 585//296 583//295 
f 586//297 587//297 585//296 
f 588//298 589//298 587//297 
f 590//299 591//299 589//298 
f 592//300 593//300 591//299 
f 594//301 595//301 593//300 
f 596//302 597//302 595//301 
f 598//303 599//303 597//302 
f 600//304 601//304 599//303 
f 602//305 603//305 601//304 
f 604//306 605//306 603//305 
f 606//307 607//307 605//306 
f 608//308 609//308 607//307 
f 610//309 611//309 609//308 
f 612//310 613//310 611//309 
f 614//311 615//311 613//310 
f 616//312 617//312 615//311 
f 618//313 619//313 617//312 
f 620//314 621//314 619//313 
f 622//315 623//315 621//314 
f 624//316 625//316 623//315 
f 626//317 627//317 625//316 
f 628//318 629//318 627//317 
f 630//319 631//319 629//318 
f 632//320 633//320 631//319 
f 634//321 635//321 633//320 
f 636//322 637//322 635//321 
f 638//323 639//323 637//322 
f 640//324 641//324 639//323 
f 642//325 643//325 641//324 
f 644//326 645//326 643//325 
f 646//327 647//327 645//326 
f 648//328 649//328 647//327 
f 650//329 651//329 649//328 
f 652//330 653//330 651//329 
f 654//331 655//331 653//330 
f 656//332 657//332 655//331 
f 658//333 659//333 657//332 
f 660//334 661//334 659//333 
f 662//335 663//335 661//334 
f 664//336 665//336 663//335 
f 666//337 667//337 665//336 
f 668//338 669//338 667//337 
f 670//339 671//339 669//338 
f 672//340 673//340 671//339 
f 674//341 675//341 673//340 
f 676//342 677//342 675//341 
f 678//343 679//343 677//342 
f 680//344 681//344 679//343 
f 682//345 683//345 681//344 
f 684//346 685//346 683//345 
f 686//347 687//347 685//346 
f 688//348 689//348 687//347 
f 690//349 691//349 689//348 
f 692//350 693//350 691//349 
f 694//351 695//351 693//350 
f 696//352 697//352 695//351 
f 698//353 699//353 697//352 
f 700//354 701//354 699//353 
f 702//355 703//355 701//354 
f 704//356 705//356 703//355 
f 706//357 707//357 705//356 
f 708//358 709//358 707//357 
f 710//359 711//359 709//358 
f 712//360 713//360 711//359 
f 714//361 715//361 713//360 
f 716//362 717//362 715//361 
f 718//363 719//363 717//362 
f 720//364 721//364 719//363 
f 722//365 723//365 721//364 
f 724//366 725//366 723//365 
f 726//367 727//367 725//366 
f 728//368 729//368 727//367 
f 730//369 731//369 729//368 
f 732//370 733//370 731//369 
f 734//371 735//371 733//370 
f 428//372 427//372 735//371 
f 735//371 734//371 428//372 
f 733//370 732//370 734//371 
f 731//369 730//369 732//370 
f 729//368 728//368 730//369 
f 727//367 726//367 728//368 
f 725//366 724//366 726//367 
f 723//365 722//365 724//366 
f 721//364 720//364 722//365 
f 719//363 718//363 720//364 
f 717//362 716//362 718//363 
f 715//361 714//361 716//362 
f 713//360 712//360 714//361 
f 711//359 710//359 712//360 
f 709//358 708//358 710//359 
f 707//357 706//357 708//358 
f 705//356 704//356 706//357 
f 703//355 702//355 704//356 
f 701//354 700//354 702//355 
f 699//353 698//353 700//354 
f 697//352 696//352 698//353 
f 695//351 694//351 696//352 
f 693//350 692//350 694//351 
f 691//349 690//349 692//350 
f 689//348 688//348 690//349 
f 687//347 686//347 688//348 
f 685//346 684//346 686//347 
f 683//345 682//345 684//346 
f 681//344 680//344 682//345 
f 679//343 678//343 680//344 
f 677//342 676//342 678//343 
f 675//341 674//341 676//342 
f 673//340 672//340 674//341 
f 671//339 670//339 672//340 
f 669//338 668//338 670//339 
f 667//337 666//337 668//338 
f 665//336 664//336 666//337 
f 663//335 662//335 664//336 
f 661//334 660//334 662//335 
f 659//333 658//333 660//334 
f 657//332 656//332 658//333 
f 655//331 654//331 656//332 
f 653//330 652//330 654//331 
f 651//329 650//329 652//330 
f 649//328 648//328 650//329 
f 647//327 646//327 648//328 
f 645//326 644//326 646//327 
f 643//325 642//325 644//326 
f 641//324 640//324 642//325 
f 639//323 638//323 640//324 
f 637//322 636//322 638//323 
f 635//321 634//321 636//322 
f 633//320 632//320 634//321 
f 631//319 630//319 632//320 
f 629//318 628//318 630//319 
f 627//317 626//317 628//318 
f 625//316 624//316 626//317 
f 623//315 622//315 624//316 
f 621//314 620//314 622//315 
f 619//313 618//313 620//314 
f 617//312 616//312 618//313 
f 615//311 614//311 616//312 
f 613//310 612//310 614//311 
f 611//309 610//309 612//310 
f 609//308 608//308 610//309 
f 607//307 606//307 608//308 
f 605//306 604//306 606//307 
f 603//305 602//305 604//306 
f 601//304 600//304 602//305 
f 599//303 598//303 600//304 
f 597//302 596//302 598//303 
f 595//301 594//301 596//302 
f 593//300 592//300 594//301 
f 591//299 590//299 592//300 
f 589//298 588//298 590//299 
f 587//297 586//297 588//298 
f 585//296 584//296 586//297 
f 583//295 582//295 584//296 
f 581//294 580//294 582//295 
f 579//293 578//293 580//294 
f 577//292 576//292 578//293 
f 575//291 574//291 576//292 
f 573//290 572//290 574//291 
f 571//289 570//289 572//290 
f 569//288 568//288 570//289 
f 567//287 566//287 568//288 
f 565//286 564//286 566//287 
f 563//285 562//285 564//286 
f 561//284 560//284 562//285 
f 559//283 558//283 560//284 
f 557//282 556//282 558//283 
f 555//281 554//281 556//282 
f 553//280 552//280 554//281 
f 551//279 550//279 552//280 
f 549//278 548//278 550//279 
f 547//277 546//277 548//278 
f 545//276 544//276 546//277 
f 543//275 542//275 544//276 
f 541//274 540//274 542//275 
f 539//273 538//273 540//274 
f 537//272 536//272 538//273 
f 535//271 534//271 536//272 
f 533//270 532//270 534//271 
f 531//269 530//269 532//270 
f 529//268 528//268 530//269 
f 527//267 526//267 528//268 
f 525//266 524//266 526//267 
f 523//265 522//265 524//266 
f 521//264 520//264 522//265 
f 519//263 518//263 520//264 
f 517//262 516//262 518//263 
f 515//261 514//261 516//262 
f 513//260 512//260 514//261 
f 511//259 510//259 512//260 
f 509//258 508//258 510//259 
f 507//257 506//257 508//258 
f 505//256 504//256 506//257 
f 503//255 502//255 504//256 
f 501//254 500//254 502//255 
f 499//253 498//253 500//254 
f 497//252 496//252 498//253 
f 495//251 494//251 496//252 
f 493//250 492//250 494//251 
f 491//249 490//249 492//250 
f 489//248 488//248 490//249 
f 487//247 486//247 488//248 
f 485//246 484//246 486//247 
f 483//245 482//245 484//246 
f 481//244 480//244 482//245 
f 479//243 478//243 480//244 
f 477//242 476//242 478//243 
f 475//241 474//241 476//242 
f 473//240 472//240 474//241 
f 471//239 470//239 472//240 
f 469//238 468//238 470//239 
f 467//237 466//237 468//238 
f 465//236 464//236 466//237 
f 463//235 462//235 464//236 
f 461//234 460//234 462//235 
f 459//233 458//233 460//234 
f 457//232 456//232 458//233 
f 455//231 454//231 456//232 
f 453//230 452//230 454//231 
f 451//229 450//229 452//230 
f 449//228 448//228 450//229 
f 447//227 446//227 448//228 
f 445//226 444//226 446//227 
f 443//225 442//225 444//226 
f 441//224 440//224 442//225 
f 439//223 438//223 440//224 
f 437//222 436//222 438//223 
f 435//221 434//221 436//222 
f 433//220 432//220 434//221 
f 430//218 429//218 432//220 
f 431//219 736//373 429//218 
o mesh25
f 424//374 486//374 484//374 
f 424//374 488//374 486//374 
f 490//374 488//374 424//374 
f 484//374 482//374 424//374 
f 424//374 422//374 490//374 
f 422//374 420//374 490//374 
f 492//374 490//374 420//374 
f 482//374 480//374 424//374 
f 420//374 418//374 492//374 
f 418//374 416//374 492//374 
f 494//374 492//374 416//374 
f 416//374 414//374 494//374 
f 496//374 494//374 414//374 
f 480//374 478//374 424//374 
f 414//374 412//374 496//374 
f 412//374 410//374 496//374 
f 498//374 496//374 410//374 
f 478//374 476//374 424//374 
f 410//374 408//374 498//374 
f 408//374 406//374 498//374 
f 476//374 474//374 424//374 
f 500//374 498//374 406//374 
f 406//374 404//374 500//374 
f 502//374 500//374 404//374 
f 474//374 472//374 424//374 
f 404//374 402//374 502//374 
f 504//374 502//374 400//374 
f 402//374 400//374 502//374 
f 400//374 398//374 504//374 
f 398//374 396//374 504//374 
f 426//374 428//374 734//374 
f 472//374 470//374 424//374 
f 506//374 504//374 396//374 
f 734//374 732//374 426//374 
f 396//374 394//374 506//374 
f 508//374 506//374 394//374 
f 40//374 37//374 726//374 
f 37//374 426//374 728//374 
f 732//374 730//374 426//374 
f 470//374 468//374 424//374 
f 394//374 392//374 508//374 
f 724//374 42//374 40//374 
f 730//374 728//374 426//374 
f 392//374 390//374 508//374 
f 510//374 508//374 390//374 
f 512//374 510//374 388//374 
f 722//374 44//374 42//374 
f 728//374 726//374 37//374 
f 390//374 388//374 510//374 
f 388//374 386//374 512//374 
f 720//374 46//374 44//374 
f 726//374 724//374 40//374 
f 386//374 384//374 512//374 
f 514//374 512//374 384//374 
f 516//374 514//374 382//374 
f 718//374 48//374 46//374 
f 42//374 724//374 722//374 
f 384//374 382//374 514//374 
f 382//374 380//374 516//374 
f 50//374 48//374 718//374 
f 44//374 722//374 720//374 
f 380//374 378//374 516//374 
f 518//374 516//374 378//374 
f 520//374 518//374 376//374 
f 54//374 52//374 714//374 
f 52//374 50//374 716//374 
f 46//374 720//374 718//374 
f 378//374 376//374 518//374 
f 376//374 374//374 520//374 
f 712//374 56//374 54//374 
f 718//374 716//374 50//374 
f 374//374 372//374 520//374 
f 522//374 520//374 372//374 
f 524//374 522//374 370//374 
f 710//374 58//374 56//374 
f 716//374 714//374 52//374 
f 372//374 370//374 522//374 
f 370//374 368//374 524//374 
f 708//374 60//374 58//374 
f 714//374 712//374 54//374 
f 368//374 366//374 524//374 
f 526//374 524//374 366//374 
f 60//374 708//374 706//374 
f 56//374 712//374 710//374 
f 366//374 364//374 526//374 
f 528//374 526//374 364//374 
f 530//374 528//374 362//374 
f 62//374 706//374 704//374 
f 58//374 710//374 708//374 
f 364//374 362//374 528//374 
f 362//374 360//374 530//374 
f 64//374 704//374 702//374 
f 706//374 62//374 60//374 
f 360//374 358//374 530//374 
f 532//374 530//374 358//374 
f 534//374 532//374 356//374 
f 66//374 702//374 700//374 
f 704//374 64//374 62//374 
f 358//374 356//374 532//374 
f 356//374 354//374 534//374 
f 68//374 700//374 698//374 
f 702//374 66//374 64//374 
f 354//374 352//374 534//374 
f 536//374 534//374 352//374 
f 70//374 698//374 696//374 
f 700//374 68//374 66//374 
f 352//374 350//374 536//374 
f 538//374 536//374 350//374 
f 72//374 696//374 694//374 
f 698//374 70//374 68//374 
f 350//374 348//374 538//374 
f 540//374 538//374 348//374 
f 542//374 540//374 346//374 
f 74//374 694//374 692//374 
f 696//374 72//374 70//374 
f 348//374 346//374 540//374 
f 346//374 344//374 542//374 
f 76//374 692//374 690//374 
f 694//374 74//374 72//374 
f 344//374 342//374 542//374 
f 544//374 542//374 342//374 
f 78//374 690//374 688//374 
f 692//374 76//374 74//374 
f 342//374 340//374 544//374 
f 546//374 544//374 340//374 
f 80//374 688//374 686//374 
f 690//374 78//374 76//374 
f 340//374 338//374 546//374 
f 548//374 546//374 338//374 
f 550//374 548//374 336//374 
f 684//374 84//374 82//374 
f 688//374 80//374 78//374 
f 338//374 336//374 548//374 
f 336//374 334//374 550//374 
f 682//374 86//374 84//374 
f 686//374 82//374 80//374 
f 334//374 332//374 550//374 
f 552//374 550//374 332//374 
f 680//374 88//374 86//374 
f 82//374 686//374 684//374 
f 332//374 330//374 552//374 
f 554//374 552//374 330//374 
f 556//374 554//374 328//374 
f 84//374 684//374 682//374 
f 330//374 328//374 554//374 
f 328//374 326//374 556//374 
f 90//374 88//374 678//374 
f 86//374 682//374 680//374 
f 326//374 324//374 556//374 
f 558//374 556//374 324//374 
f 92//374 90//374 676//374 
f 680//374 678//374 88//374 
f 324//374 322//374 558//374 
f 560//374 558//374 322//374 
f 672//374 94//374 92//374 
f 678//374 676//374 90//374 
f 322//374 320//374 560//374 
f 562//374 560//374 320//374 
f 564//374 562//374 318//374 
f 670//374 96//374 94//374 
f 676//374 674//374 92//374 
f 320//374 318//374 562//374 
f 318//374 316//374 564//374 
f 668//374 98//374 96//374 
f 92//374 674//374 672//374 
f 316//374 314//374 564//374 
f 566//374 564//374 314//374 
f 568//374 566//374 312//374 
f 666//374 100//374 98//374 
f 94//374 672//374 670//374 
f 314//374 312//374 566//374 
f 312//374 310//374 568//374 
f 664//374 102//374 100//374 
f 96//374 670//374 668//374 
f 310//374 308//374 568//374 
f 570//374 568//374 308//374 
f 572//374 570//374 306//374 
f 662//374 104//374 102//374 
f 98//374 668//374 666//374 
f 308//374 306//374 570//374 
f 306//374 304//374 572//374 
f 660//374 106//374 104//374 
f 100//374 666//374 664//374 
f 304//374 302//374 572//374 
f 574//374 572//374 302//374 
f 576//374 574//374 300//374 
f 658//374 108//374 106//374 
f 102//374 664//374 662//374 
f 302//374 300//374 574//374 
f 300//374 298//374 576//374 
f 578//374 576//374 296//374 
f 656//374 110//374 108//374 
f 104//374 662//374 660//374 
f 298//374 296//374 576//374 
f 296//374 294//374 578//374 
f 654//374 112//374 110//374 
f 106//374 660//374 658//374 
f 294//374 292//374 578//374 
f 580//374 578//374 292//374 
f 582//374 580//374 290//374 
f 652//374 114//374 112//374 
f 108//374 658//374 656//374 
f 292//374 290//374 580//374 
f 290//374 288//374 582//374 
f 584//374 582//374 286//374 
f 650//374 116//374 114//374 
f 110//374 656//374 654//374 
f 737//374 424//374 466//374 
f 288//374 286//374 582//374 
f 286//374 284//374 584//374 
f 586//374 584//374 282//374 
f 588//374 586//374 278//374 
f 648//374 118//374 116//374 
f 112//374 654//374 652//374 
f 737//374 738//374 424//374 
f 284//374 282//374 584//374 
f 282//374 280//374 586//374 
f 278//374 276//374 588//374 
f 646//374 120//374 118//374 
f 114//374 652//374 650//374 
f 466//374 464//374 737//374 
f 280//374 278//374 586//374 
f 276//374 274//374 588//374 
f 590//374 588//374 272//374 
f 642//374 124//374 122//374 
f 644//374 122//374 120//374 
f 116//374 650//374 648//374 
f 464//374 462//374 737//374 
f 274//374 272//374 588//374 
f 272//374 270//374 590//374 
f 592//374 266//374 264//374 
f 592//374 590//374 268//374 
f 642//374 126//374 124//374 
f 118//374 648//374 646//374 
f 462//374 460//374 737//374 
f 270//374 268//374 590//374 
f 268//374 266//374 592//374 
f 594//374 592//374 262//374 
f 638//374 130//374 128//374 
f 640//374 128//374 126//374 
f 120//374 646//374 644//374 
f 460//374 458//374 737//374 
f 264//374 262//374 592//374 
f 262//374 260//374 594//374 
f 596//374 256//374 254//374 
f 596//374 594//374 258//374 
f 638//374 132//374 130//374 
f 122//374 644//374 642//374 
f 458//374 456//374 737//374 
f 260//374 258//374 594//374 
f 258//374 256//374 596//374 
f 598//374 250//374 248//374 
f 598//374 596//374 252//374 
f 234//374 232//374 602//374 
f 634//374 136//374 134//374 
f 636//374 134//374 132//374 
f 126//374 642//374 640//374 
f 456//374 454//374 737//374 
f 254//374 252//374 596//374 
f 252//374 250//374 598//374 
f 600//374 244//374 242//374 
f 244//374 600//374 598//374 
f 600//374 236//374 234//374 
f 632//374 140//374 138//374 
f 634//374 138//374 136//374 
f 128//374 640//374 638//374 
f 454//374 452//374 737//374 
f 248//374 246//374 598//374 
f 598//374 246//374 244//374 
f 600//374 238//374 236//374 
f 602//374 228//374 226//374 
f 604//374 220//374 218//374 
f 630//374 144//374 142//374 
f 632//374 142//374 140//374 
f 132//374 638//374 636//374 
f 452//374 450//374 737//374 
f 242//374 240//374 600//374 
f 600//374 240//374 238//374 
f 602//374 230//374 228//374 
f 604//374 222//374 220//374 
f 628//374 148//374 146//374 
f 630//374 146//374 144//374 
f 134//374 636//374 634//374 
f 450//374 448//374 737//374 
f 602//374 600//374 234//374 
f 602//374 232//374 230//374 
f 604//374 224//374 222//374 
f 606//374 214//374 212//374 
f 626//374 152//374 150//374 
f 628//374 150//374 148//374 
f 138//374 634//374 632//374 
f 448//374 446//374 737//374 
f 226//374 604//374 602//374 
f 604//374 226//374 224//374 
f 606//374 216//374 214//374 
f 608//374 212//374 210//374 
f 624//374 156//374 154//374 
f 624//374 160//374 158//374 
f 626//374 154//374 152//374 
f 142//374 632//374 630//374 
f 446//374 444//374 737//374 
f 218//374 606//374 604//374 
f 606//374 218//374 216//374 
f 608//374 206//374 204//374 
f 210//374 208//374 608//374 
f 610//374 204//374 202//374 
f 612//374 192//374 190//374 
f 612//374 196//374 194//374 
f 614//374 186//374 184//374 
f 614//374 190//374 188//374 
f 622//374 162//374 160//374 
f 622//374 166//374 164//374 
f 158//374 156//374 624//374 
f 146//374 630//374 628//374 
f 444//374 442//374 737//374 
f 212//374 608//374 606//374 
f 208//374 206//374 608//374 
f 610//374 198//374 196//374 
f 202//374 200//374 610//374 
f 194//374 192//374 612//374 
f 188//374 186//374 614//374 
f 616//374 180//374 178//374 
f 616//374 184//374 182//374 
f 618//374 178//374 176//374 
f 620//374 168//374 166//374 
f 164//374 162//374 622//374 
f 150//374 628//374 626//374 
f 442//374 440//374 737//374 
f 204//374 610//374 608//374 
f 200//374 198//374 610//374 
f 184//374 616//374 614//374 
f 182//374 180//374 616//374 
f 618//374 172//374 170//374 
f 176//374 174//374 618//374 
f 620//374 170//374 168//374 
f 154//374 626//374 624//374 
f 440//374 438//374 737//374 
f 196//374 612//374 610//374 
f 178//374 618//374 616//374 
f 174//374 172//374 618//374 
f 160//374 624//374 622//374 
f 438//374 436//374 737//374 
f 190//374 614//374 612//374 
f 166//374 622//374 620//374 
f 737//374 432//374 429//374 
f 436//374 434//374 737//374 
f 170//374 620//374 618//374 
f 434//374 432//374 737//374 
f 429//374 736//374 737//374 
f 468//374 466//374 424//374 
o mesh26
f 425//375 483//375 485//375 
f 491//375 423//375 425//375 
f 485//375 487//375 425//375 
f 491//375 421//375 423//375 
f 425//375 481//375 483//375 
f 493//375 419//375 421//375 
f 487//375 489//375 425//375 
f 493//375 417//375 419//375 
f 425//375 479//375 481//375 
f 495//375 415//375 417//375 
f 425//375 489//375 491//375 
f 497//375 413//375 415//375 
f 421//375 491//375 493//375 
f 497//375 411//375 413//375 
f 425//375 477//375 479//375 
f 499//375 409//375 411//375 
f 417//375 493//375 495//375 
f 499//375 407//375 409//375 
f 425//375 475//375 477//375 
f 415//375 495//375 497//375 
f 501//375 405//375 407//375 
f 425//375 473//375 475//375 
f 503//375 403//375 405//375 
f 411//375 497//375 499//375 
f 505//375 399//375 401//375 
f 503//375 401//375 403//375 
f 425//375 471//375 473//375 
f 505//375 397//375 399//375 
f 407//375 499//375 501//375 
f 39//375 733//375 735//375 
f 405//375 501//375 503//375 
f 39//375 731//375 733//375 
f 507//375 395//375 397//375 
f 425//375 469//375 471//375 
f 39//375 729//375 731//375 
f 38//375 727//375 729//375 
f 41//375 725//375 727//375 
f 509//375 393//375 395//375 
f 401//375 503//375 505//375 
f 729//375 39//375 38//375 
f 727//375 38//375 41//375 
f 509//375 391//375 393//375 
f 425//375 467//375 469//375 
f 41//375 43//375 725//375 
f 723//375 725//375 43//375 
f 513//375 387//375 389//375 
f 511//375 389//375 391//375 
f 397//375 505//375 507//375 
f 43//375 45//375 723//375 
f 721//375 723//375 45//375 
f 513//375 385//375 387//375 
f 395//375 507//375 509//375 
f 45//375 47//375 721//375 
f 719//375 721//375 47//375 
f 517//375 381//375 383//375 
f 515//375 383//375 385//375 
f 391//375 509//375 511//375 
f 47//375 49//375 719//375 
f 51//375 717//375 719//375 
f 517//375 379//375 381//375 
f 389//375 511//375 513//375 
f 719//375 49//375 51//375 
f 53//375 715//375 717//375 
f 55//375 713//375 715//375 
f 521//375 375//375 377//375 
f 519//375 377//375 379//375 
f 385//375 513//375 515//375 
f 717//375 51//375 53//375 
f 715//375 53//375 55//375 
f 521//375 373//375 375//375 
f 383//375 515//375 517//375 
f 55//375 57//375 713//375 
f 711//375 713//375 57//375 
f 525//375 369//375 371//375 
f 523//375 371//375 373//375 
f 379//375 517//375 519//375 
f 57//375 59//375 711//375 
f 709//375 711//375 59//375 
f 525//375 367//375 369//375 
f 377//375 519//375 521//375 
f 59//375 61//375 709//375 
f 61//375 63//375 707//375 
f 527//375 365//375 367//375 
f 373//375 521//375 523//375 
f 707//375 709//375 61//375 
f 63//375 65//375 705//375 
f 531//375 361//375 363//375 
f 529//375 363//375 365//375 
f 371//375 523//375 525//375 
f 705//375 707//375 63//375 
f 65//375 67//375 703//375 
f 531//375 359//375 361//375 
f 367//375 525//375 527//375 
f 703//375 705//375 65//375 
f 67//375 69//375 701//375 
f 535//375 355//375 357//375 
f 533//375 357//375 359//375 
f 365//375 527//375 529//375 
f 701//375 703//375 67//375 
f 69//375 71//375 699//375 
f 535//375 353//375 355//375 
f 363//375 529//375 531//375 
f 699//375 701//375 69//375 
f 71//375 73//375 697//375 
f 537//375 351//375 353//375 
f 359//375 531//375 533//375 
f 697//375 699//375 71//375 
f 73//375 75//375 695//375 
f 539//375 349//375 351//375 
f 357//375 533//375 535//375 
f 695//375 697//375 73//375 
f 75//375 77//375 693//375 
f 543//375 345//375 347//375 
f 541//375 347//375 349//375 
f 353//375 535//375 537//375 
f 693//375 695//375 75//375 
f 77//375 79//375 691//375 
f 543//375 343//375 345//375 
f 351//375 537//375 539//375 
f 691//375 693//375 77//375 
f 79//375 81//375 689//375 
f 545//375 341//375 343//375 
f 349//375 539//375 541//375 
f 689//375 691//375 79//375 
f 81//375 83//375 687//375 
f 547//375 339//375 341//375 
f 347//375 541//375 543//375 
f 687//375 689//375 81//375 
f 685//375 687//375 83//375 
f 551//375 335//375 337//375 
f 549//375 337//375 339//375 
f 343//375 543//375 545//375 
f 83//375 85//375 685//375 
f 683//375 685//375 85//375 
f 551//375 333//375 335//375 
f 341//375 545//375 547//375 
f 85//375 87//375 683//375 
f 681//375 683//375 87//375 
f 553//375 331//375 333//375 
f 339//375 547//375 549//375 
f 87//375 89//375 681//375 
f 557//375 327//375 329//375 
f 555//375 329//375 331//375 
f 337//375 549//375 551//375 
f 89//375 679//375 681//375 
f 91//375 677//375 679//375 
f 557//375 325//375 327//375 
f 333//375 551//375 553//375 
f 679//375 89//375 91//375 
f 93//375 675//375 677//375 
f 559//375 323//375 325//375 
f 331//375 553//375 555//375 
f 677//375 91//375 93//375 
f 673//375 675//375 93//375 
f 561//375 321//375 323//375 
f 329//375 555//375 557//375 
f 93//375 95//375 673//375 
f 671//375 673//375 95//375 
f 565//375 317//375 319//375 
f 563//375 319//375 321//375 
f 325//375 557//375 559//375 
f 95//375 97//375 671//375 
f 669//375 671//375 97//375 
f 565//375 315//375 317//375 
f 323//375 559//375 561//375 
f 97//375 99//375 669//375 
f 667//375 669//375 99//375 
f 569//375 311//375 313//375 
f 567//375 313//375 315//375 
f 321//375 561//375 563//375 
f 99//375 101//375 667//375 
f 665//375 667//375 101//375 
f 569//375 309//375 311//375 
f 319//375 563//375 565//375 
f 101//375 103//375 665//375 
f 663//375 665//375 103//375 
f 573//375 305//375 307//375 
f 571//375 307//375 309//375 
f 315//375 565//375 567//375 
f 103//375 105//375 663//375 
f 661//375 663//375 105//375 
f 573//375 303//375 305//375 
f 313//375 567//375 569//375 
f 105//375 107//375 661//375 
f 659//375 661//375 107//375 
f 577//375 299//375 301//375 
f 575//375 301//375 303//375 
f 309//375 569//375 571//375 
f 107//375 109//375 659//375 
f 657//375 659//375 109//375 
f 579//375 295//375 297//375 
f 577//375 297//375 299//375 
f 307//375 571//375 573//375 
f 109//375 111//375 657//375 
f 655//375 657//375 111//375 
f 579//375 293//375 295//375 
f 303//375 573//375 575//375 
f 111//375 113//375 655//375 
f 653//375 655//375 113//375 
f 583//375 289//375 291//375 
f 581//375 291//375 293//375 
f 301//375 575//375 577//375 
f 113//375 115//375 653//375 
f 651//375 653//375 115//375 
f 585//375 285//375 287//375 
f 583//375 287//375 289//375 
f 297//375 577//375 579//375 
f 115//375 117//375 651//375 
f 649//375 651//375 117//375 
f 589//375 277//375 279//375 
f 587//375 281//375 283//375 
f 585//375 283//375 285//375 
f 293//375 579//375 581//375 
f 117//375 119//375 649//375 
f 647//375 649//375 119//375 
f 589//375 275//375 277//375 
f 587//375 279//375 281//375 
f 291//375 581//375 583//375 
f 119//375 121//375 647//375 
f 645//375 647//375 121//375 
f 643//375 645//375 123//375 
f 591//375 271//375 273//375 
f 589//375 273//375 275//375 
f 287//375 583//375 585//375 
f 121//375 123//375 645//375 
f 123//375 125//375 643//375 
f 593//375 267//375 269//375 
f 593//375 263//375 265//375 
f 591//375 269//375 271//375 
f 283//375 585//375 587//375 
f 125//375 127//375 643//375 
f 641//375 643//375 127//375 
f 639//375 641//375 129//375 
f 595//375 261//375 263//375 
f 265//375 267//375 593//375 
f 279//375 587//375 589//375 
f 425//375 463//375 465//375 
f 127//375 129//375 641//375 
f 129//375 131//375 639//375 
f 597//375 257//375 259//375 
f 597//375 253//375 255//375 
f 595//375 259//375 261//375 
f 273//375 589//375 591//375 
f 425//375 461//375 463//375 
f 131//375 133//375 639//375 
f 637//375 639//375 133//375 
f 635//375 637//375 135//375 
f 235//375 601//375 603//375 
f 599//375 251//375 253//375 
f 599//375 247//375 249//375 
f 255//375 257//375 597//375 
f 269//375 591//375 593//375 
f 425//375 459//375 461//375 
f 133//375 135//375 637//375 
f 135//375 137//375 635//375 
f 633//375 635//375 139//375 
f 603//375 233//375 235//375 
f 245//375 247//375 599//375 
f 601//375 241//375 243//375 
f 249//375 251//375 599//375 
f 263//375 593//375 595//375 
f 425//375 457//375 459//375 
f 137//375 139//375 635//375 
f 139//375 141//375 633//375 
f 631//375 633//375 143//375 
f 605//375 607//375 219//375 
f 603//375 605//375 227//375 
f 235//375 237//375 601//375 
f 243//375 245//375 601//375 
f 259//375 595//375 597//375 
f 425//375 455//375 457//375 
f 141//375 143//375 633//375 
f 143//375 145//375 631//375 
f 629//375 631//375 147//375 
f 219//375 221//375 605//375 
f 227//375 229//375 603//375 
f 237//375 239//375 601//375 
f 253//375 597//375 599//375 
f 425//375 453//375 455//375 
f 145//375 147//375 631//375 
f 147//375 149//375 629//375 
f 627//375 629//375 151//375 
f 607//375 609//375 213//375 
f 221//375 223//375 605//375 
f 229//375 231//375 603//375 
f 599//375 601//375 245//375 
f 425//375 451//375 453//375 
f 149//375 151//375 629//375 
f 151//375 153//375 627//375 
f 625//375 157//375 159//375 
f 625//375 627//375 155//375 
f 609//375 209//375 211//375 
f 213//375 215//375 607//375 
f 223//375 225//375 605//375 
f 239//375 241//375 601//375 
f 425//375 449//375 451//375 
f 153//375 155//375 627//375 
f 155//375 157//375 625//375 
f 623//375 163//375 165//375 
f 623//375 625//375 161//375 
f 615//375 187//375 189//375 
f 615//375 617//375 185//375 
f 613//375 193//375 195//375 
f 613//375 615//375 191//375 
f 611//375 201//375 203//375 
f 609//375 207//375 209//375 
f 609//375 611//375 205//375 
f 215//375 217//375 607//375 
f 231//375 233//375 603//375 
f 425//375 447//375 449//375 
f 425//375 443//375 445//375 
f 159//375 161//375 625//375 
f 161//375 163//375 623//375 
f 621//375 623//375 167//375 
f 619//375 175//375 177//375 
f 617//375 181//375 183//375 
f 617//375 619//375 179//375 
f 185//375 187//375 615//375 
f 191//375 193//375 613//375 
f 611//375 199//375 201//375 
f 611//375 613//375 197//375 
f 205//375 207//375 609//375 
f 225//375 227//375 605//375 
f 445//375 447//375 425//375 
f 425//375 439//375 441//375 
f 425//375 435//375 437//375 
f 739//375 430//375 425//375 
f 165//375 167//375 623//375 
f 167//375 169//375 621//375 
f 619//375 173//375 175//375 
f 619//375 621//375 171//375 
f 179//375 181//375 617//375 
f 195//375 197//375 613//375 
f 197//375 199//375 611//375 
f 217//375 219//375 607//375 
f 441//375 443//375 425//375 
f 425//375 433//375 435//375 
f 739//375 431//375 430//375 
f 169//375 171//375 621//375 
f 171//375 173//375 619//375 
f 189//375 191//375 615//375 
f 211//375 213//375 609//375 
f 437//375 439//375 425//375 
f 425//375 740//375 739//375 
f 177//375 179//375 619//375 
f 203//375 205//375 611//375 
f 430//375 433//375 425//375 
f 183//375 185//375 617//375 
f 735//375 427//375 39//375 
f 465//375 467//375 425//375 
o mesh27
f 736//376 431//376 739//376 
f 739//376 737//376 736//376 
o mesh28
f 737//377 739//377 740//377 
f 740//377 738//377 737//377 
o mesh29
f 738//378 740//378 425//378 
f 425//378 424//378 738//378 
