# OBJ generated by ONSHAPE BY PTC INC, 1.202 Units = meters
mtllib cylinder.mtl
g Part 1
v 10 -0.249049 -0.0217889 
v 10 -0.246202 -0.043412 
v 10 -0.241481 -0.0647048 
v 10 -0.234923 -0.085505 
v 10 -0.226577 -0.105655 
v 10 -0.216506 -0.125 
v 10 -0.204788 -0.143394 
v 10 -0.191511 -0.160697 
v 10 -0.176777 -0.176777 
v 10 -0.160697 -0.191511 
v 10 -0.143394 -0.204788 
v 10 -0.125 -0.216506 
v 10 -0.105655 -0.226577 
v 10 -0.085505 -0.234923 
v 10 -0.0647048 -0.241481 
v 10 -0.043412 -0.246202 
v 10 -0.0217889 -0.249049 
v 10 -7.48975e-17 -0.25 
v 10 0.0217889 -0.249049 
v 10 0.043412 -0.246202 
v 10 0.0647048 -0.241481 
v 10 0.085505 -0.234923 
v 10 0.105655 -0.226577 
v 10 0.125 -0.216506 
v 10 0.143394 -0.204788 
v 10 0.160697 -0.191511 
v 10 0.176777 -0.176777 
v 10 0.191511 -0.160697 
v 10 0.204788 -0.143394 
v 10 0.216506 -0.125 
v 10 0.226577 -0.105655 
v 10 0.234923 -0.085505 
v 10 0.241481 -0.0647048 
v 10 0.246202 -0.043412 
v 10 0.249049 -0.0217889 
v 10 0.25 -1.21431e-16 
v 10 0.249049 0.0217889 
v 10 0.246202 0.043412 
v 10 0.241481 0.0647048 
v 10 0.234923 0.085505 
v 10 0.226577 0.105655 
v 10 0.216506 0.125 
v 10 0.204788 0.143394 
v 10 0.191511 0.160697 
v 10 0.176777 0.176777 
v 10 0.160697 0.191511 
v 10 0.143394 0.204788 
v 10 0.125 0.216506 
v 10 0.105655 0.226577 
v 10 0.085505 0.234923 
v 10 0.0647048 0.241481 
v 10 0.043412 0.246202 
v 10 0.0217889 0.249049 
v 10 1.8878e-16 0.25 
v 10 -0.0217889 0.249049 
v 10 -0.043412 0.246202 
v 10 -0.0647048 0.241481 
v 10 -0.085505 0.234923 
v 10 -0.105655 0.226577 
v 10 -0.125 0.216506 
v 10 -0.143394 0.204788 
v 10 -0.160697 0.191511 
v 10 -0.176777 0.176777 
v 10 -0.191511 0.160697 
v 10 -0.204788 0.143394 
v 10 -0.216506 0.125 
v 10 -0.226577 0.105655 
v 10 -0.234923 0.085505 
v 10 -0.241481 0.0647048 
v 10 -0.246202 0.043412 
v 10 -0.249049 0.0217889 
v 10 -0.25 0 
v 10 1.53081e-17 0 
v 0 0.25 -1.21431e-16 
v 0 0.249049 -0.0217889 
v 0 0.246202 -0.043412 
v 0 0.241481 -0.0647048 
v 0 0.234923 -0.085505 
v 0 0.226577 -0.105655 
v 0 0.216506 -0.125 
v 0 0.204788 -0.143394 
v 0 0.191511 -0.160697 
v 0 0.176777 -0.176777 
v 0 0.160697 -0.191511 
v 0 0.143394 -0.204788 
v 0 0.125 -0.216506 
v 0 0.105655 -0.226577 
v 0 0.085505 -0.234923 
v 0 0.0647048 -0.241481 
v 0 0.043412 -0.246202 
v 0 0.0217889 -0.249049 
v 0 -8.04061e-17 -0.25 
v 0 -0.0217889 -0.249049 
v 0 -0.043412 -0.246202 
v 0 -0.0647048 -0.241481 
v 0 -0.085505 -0.234923 
v 0 -0.105655 -0.226577 
v 0 -0.125 -0.216506 
v 0 -0.143394 -0.204788 
v 0 -0.160697 -0.191511 
v 0 -0.176777 -0.176777 
v 0 -0.191511 -0.160697 
v 0 -0.204788 -0.143394 
v 0 -0.216506 -0.125 
v 0 -0.226577 -0.105655 
v 0 -0.234923 -0.085505 
v 0 -0.241481 -0.0647048 
v 0 -0.246202 -0.043412 
v 0 -0.249049 -0.0217889 
v 0 -0.25 -3.06162e-17 
v 0 -0.249049 0.0217889 
v 0 -0.246202 0.043412 
v 0 -0.241481 0.0647048 
v 0 -0.234923 0.085505 
v 0 -0.226577 0.105655 
v 0 -0.216506 0.125 
v 0 -0.204788 0.143394 
v 0 -0.191511 0.160697 
v 0 -0.176777 0.176777 
v 0 -0.160697 0.191511 
v 0 -0.143394 0.204788 
v 0 -0.125 0.216506 
v 0 -0.105655 0.226577 
v 0 -0.085505 0.234923 
v 0 -0.0647048 0.241481 
v 0 -0.043412 0.246202 
v 0 -0.0217889 0.249049 
v 0 1.91428e-16 0.25 
v 0 0.0217889 0.249049 
v 0 0.043412 0.246202 
v 0 0.0647048 0.241481 
v 0 0.085505 0.234923 
v 0 0.105655 0.226577 
v 0 0.125 0.216506 
v 0 0.143394 0.204788 
v 0 0.160697 0.191511 
v 0 0.176777 0.176777 
v 0 0.191511 0.160697 
v 0 0.204788 0.143394 
v 0 0.216506 0.125 
v 0 0.226577 0.105655 
v 0 0.234923 0.085505 
v 0 0.241481 0.0647048 
v 0 0.246202 0.043412 
v 0 0.249049 0.0217889 
v 0 1.53081e-17 0 
vn 1 0 0 
vn 0 1 0 
vn 0 0.996195 -0.0871557 
vn 0 0.984808 -0.173648 
vn 0 0.965926 -0.258819 
vn 0 0.939693 -0.34202 
vn 0 0.906308 -0.422618 
vn 0 0.866025 -0.5 
vn 0 0.819152 -0.573576 
vn 0 0.766044 -0.642788 
vn 0 0.707107 -0.707107 
vn 0 0.642788 -0.766044 
vn 0 0.573576 -0.819152 
vn 0 0.5 -0.866025 
vn 0 0.422618 -0.906308 
vn 0 0.34202 -0.939693 
vn 0 0.258819 -0.965926 
vn 0 0.173648 -0.984808 
vn 0 0.0871557 -0.996195 
vn 0 5.05322e-16 -1 
vn 0 -0.0871557 -0.996195 
vn 0 -0.173648 -0.984808 
vn 0 -0.258819 -0.965926 
vn 0 -0.34202 -0.939693 
vn 0 -0.422618 -0.906308 
vn 0 -0.5 -0.866025 
vn 0 -0.573576 -0.819152 
vn 0 -0.642788 -0.766044 
vn 0 -0.707107 -0.707107 
vn 0 -0.766044 -0.642788 
vn 0 -0.819152 -0.573576 
vn 0 -0.866025 -0.5 
vn 0 -0.906308 -0.422618 
vn 0 -0.939693 -0.34202 
vn 0 -0.965926 -0.258819 
vn 0 -0.984808 -0.173648 
vn 0 -0.996195 -0.0871557 
vn 0 -1 -5.66554e-16 
vn 0 -0.996195 0.0871557 
vn 0 -0.984808 0.173648 
vn 0 -0.965926 0.258819 
vn 0 -0.939693 0.34202 
vn 0 -0.906308 0.422618 
vn 0 -0.866025 0.5 
vn 0 -0.819152 0.573576 
vn 0 -0.766044 0.642788 
vn 0 -0.707107 0.707107 
vn 0 -0.642788 0.766044 
vn 0 -0.573576 0.819152 
vn 0 -0.5 0.866025 
vn 0 -0.422618 0.906308 
vn 0 -0.34202 0.939693 
vn 0 -0.258819 0.965926 
vn 0 -0.173648 0.984808 
vn 0 -0.0871557 0.996195 
vn 0 -1.07188e-15 1 
vn 0 0.0871557 0.996195 
vn 0 0.173648 0.984808 
vn 0 0.258819 0.965926 
vn 0 0.34202 0.939693 
vn 0 0.422618 0.906308 
vn 0 0.5 0.866025 
vn 0 0.573576 0.819152 
vn 0 0.642788 0.766044 
vn 0 0.707107 0.707107 
vn 0 0.766044 0.642788 
vn 0 0.819152 0.573576 
vn 0 0.866025 0.5 
vn 0 0.906308 0.422618 
vn 0 0.939693 0.34202 
vn 0 0.965926 0.258819 
vn 0 0.984808 0.173648 
vn 0 0.996195 0.0871557 
vn -1 0 0 
usemtl 0.615686_0.811765_0.929412_0.000000_0.000000
o mesh0
f 73//1 1//1 2//1 
f 2//1 3//1 73//1 
f 3//1 4//1 73//1 
f 4//1 5//1 73//1 
f 5//1 6//1 73//1 
f 6//1 7//1 73//1 
f 7//1 8//1 73//1 
f 8//1 9//1 73//1 
f 9//1 10//1 73//1 
f 10//1 11//1 73//1 
f 11//1 12//1 73//1 
f 12//1 13//1 73//1 
f 13//1 14//1 73//1 
f 14//1 15//1 73//1 
f 15//1 16//1 73//1 
f 16//1 17//1 73//1 
f 17//1 18//1 73//1 
f 18//1 19//1 73//1 
f 19//1 20//1 73//1 
f 20//1 21//1 73//1 
f 21//1 22//1 73//1 
f 22//1 23//1 73//1 
f 23//1 24//1 73//1 
f 24//1 25//1 73//1 
f 25//1 26//1 73//1 
f 26//1 27//1 73//1 
f 27//1 28//1 73//1 
f 28//1 29//1 73//1 
f 29//1 30//1 73//1 
f 30//1 31//1 73//1 
f 31//1 32//1 73//1 
f 32//1 33//1 73//1 
f 33//1 34//1 73//1 
f 34//1 35//1 73//1 
f 35//1 36//1 73//1 
f 36//1 37//1 73//1 
f 37//1 38//1 73//1 
f 38//1 39//1 73//1 
f 39//1 40//1 73//1 
f 40//1 41//1 73//1 
f 41//1 42//1 73//1 
f 42//1 43//1 73//1 
f 43//1 44//1 73//1 
f 44//1 45//1 73//1 
f 45//1 46//1 73//1 
f 46//1 47//1 73//1 
f 47//1 48//1 73//1 
f 48//1 49//1 73//1 
f 49//1 50//1 73//1 
f 50//1 51//1 73//1 
f 51//1 52//1 73//1 
f 52//1 53//1 73//1 
f 53//1 54//1 73//1 
f 54//1 55//1 73//1 
f 55//1 56//1 73//1 
f 56//1 57//1 73//1 
f 57//1 58//1 73//1 
f 58//1 59//1 73//1 
f 59//1 60//1 73//1 
f 60//1 61//1 73//1 
f 61//1 62//1 73//1 
f 62//1 63//1 73//1 
f 63//1 64//1 73//1 
f 64//1 65//1 73//1 
f 65//1 66//1 73//1 
f 66//1 67//1 73//1 
f 67//1 68//1 73//1 
f 68//1 69//1 73//1 
f 69//1 70//1 73//1 
f 70//1 71//1 73//1 
f 71//1 72//1 73//1 
f 72//1 1//1 73//1 
o mesh1
f 74//2 36//2 35//3 
f 75//3 35//3 34//4 
f 76//4 34//4 33//5 
f 77//5 33//5 32//6 
f 78//6 32//6 31//7 
f 79//7 31//7 30//8 
f 80//8 30//8 29//9 
f 81//9 29//9 28//10 
f 82//10 28//10 27//11 
f 83//11 27//11 26//12 
f 84//12 26//12 25//13 
f 85//13 25//13 24//14 
f 86//14 24//14 23//15 
f 87//15 23//15 22//16 
f 88//16 22//16 21//17 
f 89//17 21//17 20//18 
f 90//18 20//18 19//19 
f 91//19 19//19 18//20 
f 92//20 18//20 17//21 
f 93//21 17//21 16//22 
f 94//22 16//22 15//23 
f 95//23 15//23 14//24 
f 96//24 14//24 13//25 
f 97//25 13//25 12//26 
f 98//26 12//26 11//27 
f 99//27 11//27 10//28 
f 100//28 10//28 9//29 
f 101//29 9//29 8//30 
f 102//30 8//30 7//31 
f 103//31 7//31 6//32 
f 104//32 6//32 5//33 
f 105//33 5//33 4//34 
f 106//34 4//34 3//35 
f 107//35 3//35 2//36 
f 108//36 2//36 1//37 
f 109//37 1//37 72//38 
f 110//38 72//38 71//39 
f 111//39 71//39 70//40 
f 112//40 70//40 69//41 
f 113//41 69//41 68//42 
f 114//42 68//42 67//43 
f 115//43 67//43 66//44 
f 116//44 66//44 65//45 
f 117//45 65//45 64//46 
f 118//46 64//46 63//47 
f 119//47 63//47 62//48 
f 120//48 62//48 61//49 
f 121//49 61//49 60//50 
f 122//50 60//50 59//51 
f 123//51 59//51 58//52 
f 124//52 58//52 57//53 
f 125//53 57//53 56//54 
f 126//54 56//54 55//55 
f 127//55 55//55 54//56 
f 128//56 54//56 53//57 
f 129//57 53//57 52//58 
f 130//58 52//58 51//59 
f 131//59 51//59 50//60 
f 132//60 50//60 49//61 
f 133//61 49//61 48//62 
f 134//62 48//62 47//63 
f 135//63 47//63 46//64 
f 136//64 46//64 45//65 
f 137//65 45//65 44//66 
f 138//66 44//66 43//67 
f 139//67 43//67 42//68 
f 140//68 42//68 41//69 
f 141//69 41//69 40//70 
f 142//70 40//70 39//71 
f 143//71 39//71 38//72 
f 144//72 38//72 37//73 
f 145//73 37//73 36//2 
f 36//2 74//2 145//73 
f 37//73 145//73 144//72 
f 38//72 144//72 143//71 
f 39//71 143//71 142//70 
f 40//70 142//70 141//69 
f 41//69 141//69 140//68 
f 42//68 140//68 139//67 
f 43//67 139//67 138//66 
f 44//66 138//66 137//65 
f 45//65 137//65 136//64 
f 46//64 136//64 135//63 
f 47//63 135//63 134//62 
f 48//62 134//62 133//61 
f 49//61 133//61 132//60 
f 50//60 132//60 131//59 
f 51//59 131//59 130//58 
f 52//58 130//58 129//57 
f 53//57 129//57 128//56 
f 54//56 128//56 127//55 
f 55//55 127//55 126//54 
f 56//54 126//54 125//53 
f 57//53 125//53 124//52 
f 58//52 124//52 123//51 
f 59//51 123//51 122//50 
f 60//50 122//50 121//49 
f 61//49 121//49 120//48 
f 62//48 120//48 119//47 
f 63//47 119//47 118//46 
f 64//46 118//46 117//45 
f 65//45 117//45 116//44 
f 66//44 116//44 115//43 
f 67//43 115//43 114//42 
f 68//42 114//42 113//41 
f 69//41 113//41 112//40 
f 70//40 112//40 111//39 
f 71//39 111//39 110//38 
f 72//38 110//38 109//37 
f 1//37 109//37 108//36 
f 2//36 108//36 107//35 
f 3//35 107//35 106//34 
f 4//34 106//34 105//33 
f 5//33 105//33 104//32 
f 6//32 104//32 103//31 
f 7//31 103//31 102//30 
f 8//30 102//30 101//29 
f 9//29 101//29 100//28 
f 10//28 100//28 99//27 
f 11//27 99//27 98//26 
f 12//26 98//26 97//25 
f 13//25 97//25 96//24 
f 14//24 96//24 95//23 
f 15//23 95//23 94//22 
f 16//22 94//22 93//21 
f 17//21 93//21 92//20 
f 18//20 92//20 91//19 
f 19//19 91//19 90//18 
f 20//18 90//18 89//17 
f 21//17 89//17 88//16 
f 22//16 88//16 87//15 
f 23//15 87//15 86//14 
f 24//14 86//14 85//13 
f 25//13 85//13 84//12 
f 26//12 84//12 83//11 
f 27//11 83//11 82//10 
f 28//10 82//10 81//9 
f 29//9 81//9 80//8 
f 30//8 80//8 79//7 
f 31//7 79//7 78//6 
f 32//6 78//6 77//5 
f 33//5 77//5 76//4 
f 34//4 76//4 75//3 
f 35//3 75//3 74//2 
o mesh2
f 146//74 111//74 112//74 
f 112//74 113//74 146//74 
f 113//74 114//74 146//74 
f 114//74 115//74 146//74 
f 115//74 116//74 146//74 
f 116//74 117//74 146//74 
f 117//74 118//74 146//74 
f 118//74 119//74 146//74 
f 119//74 120//74 146//74 
f 120//74 121//74 146//74 
f 121//74 122//74 146//74 
f 122//74 123//74 146//74 
f 123//74 124//74 146//74 
f 124//74 125//74 146//74 
f 125//74 126//74 146//74 
f 126//74 127//74 146//74 
f 127//74 128//74 146//74 
f 128//74 129//74 146//74 
f 129//74 130//74 146//74 
f 130//74 131//74 146//74 
f 131//74 132//74 146//74 
f 132//74 133//74 146//74 
f 133//74 134//74 146//74 
f 134//74 135//74 146//74 
f 135//74 136//74 146//74 
f 136//74 137//74 146//74 
f 137//74 138//74 146//74 
f 138//74 139//74 146//74 
f 139//74 140//74 146//74 
f 140//74 141//74 146//74 
f 141//74 142//74 146//74 
f 142//74 143//74 146//74 
f 143//74 144//74 146//74 
f 144//74 145//74 146//74 
f 145//74 74//74 146//74 
f 74//74 75//74 146//74 
f 75//74 76//74 146//74 
f 76//74 77//74 146//74 
f 77//74 78//74 146//74 
f 78//74 79//74 146//74 
f 79//74 80//74 146//74 
f 80//74 81//74 146//74 
f 81//74 82//74 146//74 
f 82//74 83//74 146//74 
f 83//74 84//74 146//74 
f 84//74 85//74 146//74 
f 85//74 86//74 146//74 
f 86//74 87//74 146//74 
f 87//74 88//74 146//74 
f 88//74 89//74 146//74 
f 89//74 90//74 146//74 
f 90//74 91//74 146//74 
f 91//74 92//74 146//74 
f 92//74 93//74 146//74 
f 93//74 94//74 146//74 
f 94//74 95//74 146//74 
f 95//74 96//74 146//74 
f 96//74 97//74 146//74 
f 97//74 98//74 146//74 
f 98//74 99//74 146//74 
f 99//74 100//74 146//74 
f 100//74 101//74 146//74 
f 101//74 102//74 146//74 
f 102//74 103//74 146//74 
f 103//74 104//74 146//74 
f 104//74 105//74 146//74 
f 105//74 106//74 146//74 
f 106//74 107//74 146//74 
f 107//74 108//74 146//74 
f 108//74 109//74 146//74 
f 109//74 110//74 146//74 
f 110//74 111//74 146//74 
